<svg version="1.1" xmlns="http://www.w3.org/2000/svg" width="229" height="46" viewBox="0 0 229 46">
	<style>
		.st0{fill:#1AB9DE;}
		.st1{fill:#585857;}
	</style>
	<path class="st0" d="M129.6,15.2l-3.6,3c-0.3,0.3-0.7,0.4-1.1,0.4c-0.5,0-1-0.2-1.3-0.6c-0.6-0.7-0.5-1.8,0.2-2.3l2-1.7l-2-1.7
		c-0.7-0.6-0.8-1.6-0.2-2.3c0.6-0.7,1.6-0.8,2.3-0.2l3.6,3c0.4,0.3,0.6,0.8,0.6,1.3C130.2,14.5,130,14.9,129.6,15.2 M126.1,5.8
		c-4.8,0-8.4,3.7-8.4,8.2V14c0,4.4,3.5,8.1,8.3,8.1c4.8,0,8.4-3.7,8.4-8.1v-0.1C134.4,9.4,130.9,5.8,126.1,5.8"/>
	<path class="st1" d="M191.7,19.7c0,1.2-1,2.2-2.2,2.2c-1.2,0-2.2-1-2.2-2.2s1-2.2,2.2-2.2C190.7,17.5,191.7,18.5,191.7,19.7"/>
	<path class="st1" d="M0,11.5L0,11.5c0-6,4.4-10.8,10.7-10.8c3.2,0,5.3,0.9,7.1,2.3c0.4,0.3,0.7,0.8,0.7,1.5c0,1-0.8,1.8-1.8,1.8
		c-0.5,0-0.9-0.2-1.1-0.4c-1.4-1.2-3-1.9-4.9-1.9c-3.9,0-6.8,3.3-6.8,7.3v0.1c0,4.1,2.9,7.3,6.8,7.3c2.2,0,3.7-0.7,5.2-2
		c0.3-0.2,0.7-0.4,1.1-0.4c0.9,0,1.7,0.8,1.7,1.7c0,0.6-0.3,1-0.6,1.3c-2,1.7-4.2,2.8-7.5,2.8C4.5,22.1,0,17.4,0,11.5"/>
	<path class="st1" d="M21.2,1.8c0-1,0.8-1.8,1.8-1.8c1,0,1.8,0.8,1.8,1.8v6.8c1-1.5,2.5-2.7,4.9-2.7c3.5,0,5.6,2.4,5.6,6v8.4
		c0,1-0.8,1.8-1.8,1.8c-1,0-1.8-0.8-1.8-1.8v-7.3c0-2.4-1.2-3.8-3.3-3.8c-2.1,0-3.5,1.5-3.5,3.9v7.2c0,1-0.8,1.8-1.8,1.8
		c-1,0-1.8-0.8-1.8-1.8V1.8z"/>
	<path class="st1" d="M39.7,26.1c-0.5-0.2-1.1-0.6-1.1-1.5c0-0.9,0.7-1.5,1.5-1.5c0.3,0,0.5,0.1,0.7,0.1c0.4,0.1,0.7,0.2,1.2,0.2
		c1.1,0,1.6-0.4,2.2-1.7l0.1-0.3l-5.8-13c-0.1-0.3-0.2-0.6-0.2-0.9c0-1,0.8-1.7,1.8-1.7c0.9,0,1.4,0.5,1.7,1.4l4.2,10.4l3.9-10.4
		c0.3-0.7,0.8-1.4,1.7-1.4c0.9,0,1.7,0.7,1.7,1.7c0,0.3-0.1,0.7-0.1,0.9l-5.7,13.7c-1.3,3.2-2.8,4.4-5.3,4.4
		C41.1,26.6,40.4,26.4,39.7,26.1"/>
	<path class="st1" d="M56.8,17.4V9.2h-0.6c-0.9,0-1.5-0.7-1.5-1.5c0-0.9,0.7-1.5,1.5-1.5h0.6V3.5c0-1,0.8-1.8,1.8-1.8
		c1,0,1.8,0.8,1.8,1.8v2.7h2.8c0.9,0,1.6,0.7,1.6,1.5c0,0.9-0.7,1.5-1.6,1.5h-2.8v7.7c0,1.4,0.7,2,1.9,2c0.4,0,0.8-0.1,0.9-0.1
		c0.8,0,1.5,0.7,1.5,1.5c0,0.7-0.4,1.2-0.9,1.4C63,21.9,62.3,22,61.3,22C58.7,22,56.8,20.9,56.8,17.4"/>
	<path class="st1" d="M68.3,7.8c0-1,0.8-1.8,1.8-1.8c1,0,1.8,0.8,1.8,1.8v1.6c0.8-2,2.4-3.4,3.9-3.4c1.1,0,1.8,0.7,1.8,1.8
		c0,0.9-0.6,1.6-1.4,1.7c-2.5,0.4-4.3,2.4-4.3,6.1v4.6c0,1-0.8,1.8-1.8,1.8c-1,0-1.8-0.8-1.8-1.8V7.8z"/>
	<path class="st1" d="M80.3,26.1c-0.5-0.2-1.1-0.6-1.1-1.5c0-0.9,0.7-1.5,1.5-1.5c0.3,0,0.5,0.1,0.7,0.1c0.4,0.1,0.7,0.2,1.2,0.2
		c1.1,0,1.6-0.4,2.2-1.7l0.1-0.3L79,8.6c-0.1-0.3-0.2-0.6-0.2-0.9c0-1,0.8-1.7,1.8-1.7c0.9,0,1.4,0.5,1.7,1.4l4.2,10.4l3.9-10.4
		c0.3-0.7,0.8-1.4,1.7-1.4c0.9,0,1.7,0.7,1.7,1.7c0,0.3-0.1,0.7-0.1,0.9L88,22.2c-1.3,3.2-2.8,4.4-5.3,4.4
		C81.8,26.6,81,26.4,80.3,26.1"/>
	<path class="st1" d="M97.1,2.7c0-1,0.8-1.8,1.8-1.8c1,0,1.8,0.8,1.8,1.8v7h9.9v-7c0-1,0.8-1.8,1.8-1.8c1,0,1.8,0.8,1.8,1.8v17.4
		c0,1-0.8,1.8-1.8,1.8c-1,0-1.8-0.8-1.8-1.8V13h-9.9v7.1c0,1-0.8,1.8-1.8,1.8c-1,0-1.8-0.8-1.8-1.8V2.7z"/>
	<path class="st1" d="M137.5,7.8c0-1,0.8-1.8,1.8-1.8c1,0,1.8,0.8,1.8,1.8v0.8c1-1.5,2.5-2.7,4.9-2.7c3.5,0,5.6,2.4,5.6,6v8.4
		c0,1-0.8,1.8-1.8,1.8c-1,0-1.8-0.8-1.8-1.8v-7.3c0-2.4-1.2-3.8-3.3-3.8c-2.1,0-3.5,1.5-3.5,3.9v7.2c0,1-0.8,1.8-1.8,1.8
		c-1,0-1.8-0.8-1.8-1.8V7.8z"/>
	<path class="st1" d="M154.5,20.3L154.5,20.3c0-0.7,0.2-1.2,0.8-1.8l8.3-9.5h-7.4c-0.8,0-1.5-0.7-1.5-1.5c0-0.8,0.7-1.5,1.5-1.5
		h10.3c1,0,1.7,0.6,1.7,1.4v0.1c0,0.7-0.2,1.1-0.8,1.7l-8.4,9.5h7.7c0.8,0,1.5,0.7,1.5,1.5c0,0.8-0.7,1.5-1.5,1.5h-10.6
		C155.2,21.8,154.5,21.1,154.5,20.3"/>
	<path class="st1" d="M181,16.1v-1.1c-0.9-0.4-2.1-0.6-3.6-0.6c-2.3,0-3.7,1-3.7,2.6v0.1c0,1.5,1.3,2.4,3.1,2.4
		C179.1,19.5,181,18.1,181,16.1 M170.2,17.3L170.2,17.3c0-3.4,2.6-5.1,6.5-5.1c1.7,0,3,0.3,4.2,0.7v-0.4c0-2.2-1.4-3.4-3.9-3.4
		c-1.4,0-2.5,0.2-3.5,0.6c-0.2,0.1-0.4,0.1-0.6,0.1c-0.8,0-1.5-0.7-1.5-1.5c0-0.7,0.4-1.2,1-1.4c1.5-0.6,3-0.9,5-0.9
		c2.3,0,4.1,0.6,5.2,1.7c1.2,1.1,1.7,2.8,1.7,4.8v7.7c0,1-0.8,1.7-1.7,1.7c-1,0-1.7-0.7-1.7-1.5v-0.6c-1.1,1.3-2.7,2.3-5.1,2.3
		C172.8,22.1,170.2,20.4,170.2,17.3"/>
	<path class="st1" d="M193.2,14L193.2,14c0-4.5,3.4-8.2,8.1-8.2c2.5,0,4.1,0.8,5.5,2c0.2,0.2,0.6,0.7,0.6,1.2c0,0.9-0.7,1.6-1.7,1.6
		c-0.4,0-0.8-0.2-1.1-0.4c-0.9-0.8-1.9-1.3-3.3-1.3c-2.6,0-4.5,2.3-4.5,5V14c0,2.8,1.9,5,4.7,5c1.4,0,2.5-0.6,3.5-1.4
		c0.2-0.2,0.6-0.4,1-0.4c0.9,0,1.5,0.7,1.5,1.6c0,0.5-0.2,0.9-0.5,1.1c-1.4,1.3-3.1,2.2-5.7,2.2C196.7,22.1,193.2,18.5,193.2,14"/>
	<path class="st1" d="M209.6,20.3L209.6,20.3c0-0.7,0.2-1.2,0.8-1.8l8.3-9.5h-7.4c-0.8,0-1.5-0.7-1.5-1.5c0-0.8,0.7-1.5,1.5-1.5
		h10.3c1,0,1.7,0.6,1.7,1.4v0.1c0,0.7-0.2,1.1-0.8,1.7l-8.4,9.5h7.7c0.8,0,1.5,0.7,1.5,1.5c0,0.8-0.7,1.5-1.5,1.5h-10.6
		C210.3,21.8,209.6,21.1,209.6,20.3"/>
	<path class="st1" d="M96.1,38.5l0.6-0.7c0.9,0.8,1.7,1.2,2.9,1.2c1.1,0,1.9-0.6,1.9-1.4v0c0-0.8-0.4-1.2-2.2-1.6
		c-2-0.4-2.9-1.1-2.9-2.5v0c0-1.3,1.2-2.3,2.8-2.3c1.2,0,2.1,0.4,3,1l-0.6,0.7c-0.8-0.6-1.6-0.9-2.5-0.9c-1.1,0-1.8,0.6-1.8,1.4v0
		c0,0.8,0.4,1.3,2.3,1.7c1.9,0.4,2.8,1.1,2.8,2.4v0c0,1.5-1.2,2.4-2.9,2.4C98.2,39.9,97.1,39.5,96.1,38.5"/>
	<path class="st1" d="M104.6,33.5h0.9v1.6c0.5-1,1.4-1.8,2.6-1.7v1H108c-1.4,0-2.5,1-2.5,2.9v2.5h-0.9V33.5z"/>
	<path class="st1" d="M114.7,36.7L114.7,36.7c0-1.4-1-2.5-2.3-2.5c-1.4,0-2.3,1.1-2.3,2.4v0c0,1.3,1,2.4,2.3,2.4
		C113.8,39.1,114.7,38,114.7,36.7 M109.2,36.7L109.2,36.7c0-1.8,1.4-3.3,3.3-3.3c1.9,0,3.3,1.5,3.3,3.3v0c0,1.8-1.4,3.3-3.3,3.3
		C110.5,39.9,109.2,38.4,109.2,36.7"/>
	<polygon class="st1" points="116.7,33.5 117.7,33.5 119.9,38.7 122,33.5 123,33.5 120.3,39.8 119.4,39.8 	"/>
	<path class="st1" d="M124.8,33.5h0.9v1.1c0.4-0.7,1.1-1.2,2.1-1.2c1.5,0,2.4,1,2.4,2.5v3.9h-0.9v-3.7c0-1.2-0.6-1.9-1.7-1.9
		c-1.1,0-1.9,0.8-1.9,2v3.6h-0.9V33.5z"/>
	<path class="st1" d="M137.2,36.3c-0.1-1.1-0.8-2.1-2-2.1c-1.1,0-1.9,0.9-2,2.1H137.2z M135.3,39.1c0.9,0,1.5-0.4,2-0.9l0.6,0.5
		c-0.6,0.7-1.4,1.2-2.6,1.2c-1.7,0-3.1-1.3-3.1-3.3c0-1.8,1.3-3.3,3-3.3c1.9,0,2.9,1.5,2.9,3.3c0,0.1,0,0.2,0,0.3h-5
		C133.3,38.3,134.2,39.1,135.3,39.1"/>
	<path class="st1" d="M139,41.7v-0.8c0.1,0,0.3,0,0.5,0c0.4,0,0.7-0.3,0.7-0.8v-6.6h0.9v6.6c0,1.1-0.6,1.6-1.5,1.6
		C139.3,41.8,139.2,41.8,139,41.7"/>
	<polygon class="st1" points="146.8,31.3 147.9,31.3 150.9,38.6 153.9,31.3 155,31.3 151.3,39.8 150.5,39.8 	"/>
	<path class="st1" d="M155.9,41.4l0.3-0.7c0.3,0.2,0.6,0.2,1,0.2c0.6,0,0.9-0.3,1.3-1.2l-2.9-6.3h1l2.3,5.2l2-5.2h1l-2.6,6.5
		c-0.5,1.3-1.1,1.8-2.1,1.8C156.8,41.8,156.4,41.7,155.9,41.4"/>
	<path class="st1" d="M169.2,36.7L169.2,36.7c0-1.5-1-2.5-2.2-2.5c-1.2,0-2.3,1-2.3,2.4v0c0,1.5,1.1,2.4,2.3,2.4
		C168.2,39.1,169.2,38.2,169.2,36.7 M164.7,38.6v1.2h-0.9v-8.9h0.9v3.9c0.5-0.8,1.3-1.4,2.4-1.4c1.5,0,3,1.2,3,3.3v0
		c0,2.1-1.5,3.3-3,3.3C166,39.9,165.2,39.3,164.7,38.6"/>
	<path class="st1" d="M176.8,36.3c-0.1-1.1-0.8-2.1-2-2.1c-1.1,0-1.9,0.9-2,2.1H176.8z M174.9,39.1c0.9,0,1.5-0.4,2-0.9l0.6,0.5
		c-0.6,0.7-1.4,1.2-2.6,1.2c-1.7,0-3.1-1.3-3.1-3.3c0-1.8,1.3-3.3,3-3.3c1.9,0,2.9,1.5,2.9,3.3c0,0.1,0,0.2,0,0.3h-5
		C172.9,38.3,173.8,39.1,174.9,39.1"/>
	<path class="st1" d="M179.7,33.5h0.9v1.6c0.5-1,1.4-1.8,2.6-1.7v1h-0.1c-1.4,0-2.5,1-2.5,2.9v2.5h-0.9V33.5z"/>
	<path class="st1" d="M188.6,36.2v-4.9h1v4.9c0,1.8,1,2.9,2.6,2.9c1.6,0,2.6-0.9,2.6-2.8v-4.9h1v4.9c0,2.5-1.4,3.8-3.5,3.8
		C190.1,39.9,188.6,38.6,188.6,36.2"/>
	<path class="st1" d="M200.6,32.6h-0.8l-1.3-1.6h0.8l0.9,0.8l0.9-0.8h0.8L200.6,32.6z M197.6,39l0.5-0.7c0.7,0.5,1.4,0.8,2.2,0.8
		c0.8,0,1.3-0.4,1.3-1v0c0-0.6-0.7-0.9-1.6-1.1c-1-0.3-2.1-0.6-2.1-1.8v0c0-1.1,0.9-1.8,2.1-1.8c0.8,0,1.6,0.3,2.3,0.7l-0.4,0.7
		c-0.6-0.4-1.3-0.6-1.9-0.6c-0.7,0-1.2,0.4-1.2,0.9v0c0,0.6,0.8,0.8,1.6,1.1c1,0.3,2,0.7,2,1.8v0c0,1.2-1,1.9-2.2,1.9
		C199.3,39.9,198.3,39.6,197.6,39"/>
	<path class="st1" d="M209.1,36.3c-0.1-1.1-0.8-2.1-2-2.1c-1.1,0-1.9,0.9-2,2.1H209.1z M207.2,39.1c0.9,0,1.5-0.4,2-0.9l0.6,0.5
		c-0.6,0.7-1.4,1.2-2.6,1.2c-1.7,0-3.1-1.3-3.1-3.3c0-1.8,1.3-3.3,3-3.3c1.9,0,2.9,1.5,2.9,3.3c0,0.1,0,0.2,0,0.3h-5
		C205.2,38.3,206.1,39.1,207.2,39.1"/>
	<path class="st1" d="M212.3,38.1v-3.8h-0.9v-0.8h0.9v-1.9h0.9v1.9h2v0.8h-2V38c0,0.8,0.4,1,1.1,1c0.3,0,0.6-0.1,0.9-0.2v0.8
		c-0.3,0.2-0.7,0.3-1.1,0.3C213.1,39.9,212.3,39.4,212.3,38.1"/>
	<path class="st1" d="M217.2,33.5h0.9v1.6c0.5-1,1.4-1.8,2.6-1.7v1h-0.1c-1.4,0-2.5,1-2.5,2.9v2.5h-0.9V33.5z M219.2,32.6h-0.8
		l-1.3-1.6h0.8l0.9,0.8l0.9-0.8h0.8L219.2,32.6z"/>
	<rect x="222.5" y="33.5" class="st1" width="0.9" height="6.3"/>
	<path class="st1" d="M144.6,39.2c0,0.4-0.3,0.6-0.6,0.6c-0.4,0-0.6-0.3-0.6-0.6s0.3-0.6,0.6-0.6C144.4,38.5,144.6,38.8,144.6,39.2"
		/>
	<path class="st1" d="M184.9,39.2c0,0.4-0.3,0.6-0.6,0.6c-0.4,0-0.6-0.3-0.6-0.6s0.3-0.6,0.6-0.6C184.6,38.5,184.9,38.8,184.9,39.2"
		/>
	<path class="st1" d="M227,39.2c0,0.4-0.3,0.6-0.6,0.6c-0.4,0-0.6-0.3-0.6-0.6s0.3-0.6,0.6-0.6C226.7,38.5,227,38.8,227,39.2"/>
	<path class="st1" d="M223.6,31.6c0,0.4-0.3,0.6-0.6,0.6s-0.6-0.3-0.6-0.6c0-0.4,0.3-0.6,0.6-0.6S223.6,31.3,223.6,31.6"/>
	<path class="st1" d="M141.3,31.6c0,0.4-0.3,0.6-0.6,0.6c-0.4,0-0.6-0.3-0.6-0.6c0-0.4,0.3-0.6,0.6-0.6
		C141,31,141.3,31.3,141.3,31.6"/>
</svg>