<svg id="Layer_1" data-name="Layer 1" xmlns="http://www.w3.org/2000/svg" viewBox="0 0 156 42">
  <defs>
    <style>.cls-1{fill:#fff;}</style>
  </defs>
  <title>coinmate_logo_white</title>
  <path class="cls-1"
    d="M14.75,42A20.82,20.82,0,0,1,0,35.92L2.19,33.7A17.87,17.87,0,1,0,14.75,3.12,17.73,17.73,0,0,0,5,6.05L3.25,3.44A21,21,0,1,1,14.75,42"/>
  <path class="cls-1"
    d="M16,28.88A7.88,7.88,0,1,1,22.5,16.53l2.35-1.63a10.75,10.75,0,0,0-7.58-4.56V8.22h-2.5v2.12a10.73,10.73,0,0,0,0,21.32v2.12h2.5V31.66A10.7,10.7,0,0,0,24.11,28L22,26.17A7.88,7.88,0,0,1,16,28.88"/>
  <path class="cls-1" d="M59.83,27.55a7.27,7.27,0,1,1,.06-10.28L58.17,19a4.83,4.83,0,1,0-3.44,8.23,4.69,4.69,0,0,0,3.38-1.4Z"/>
  <path class="cls-1"
    d="M61.87,22.38a7.26,7.26,0,1,1,7.25,7.27,7.27,7.27,0,0,1-7.25-7.27m2.42,0a4.84,4.84,0,1,0,4.83-4.84,4.83,4.83,0,0,0-4.83,4.84"/>
  <rect class="cls-1" x="78.83" y="15.11" width="2.43" height="14.54"/>
  <polygon class="cls-1"
    points="97.27 15.11 97.27 29.65 94.7 29.65 88.21 19.39 88.21 29.65 85.78 29.65 85.78 15.11 88.35 15.11 94.85 25.37 94.85 15.11 97.27 15.11"/>
  <polygon class="cls-1"
    points="116.34 29.65 113.91 29.65 113.91 19.59 108.79 26.91 103.64 19.59 103.64 29.65 101.22 29.65 101.22 15.11 103.46 15.11 108.79 22.69 114.1 15.11 116.34 15.11 116.34 29.65"/>
  <path class="cls-1" d="M132.4,29.65h-2.6l-1.12-3h-5.93l-1.12,3h-2.57l5.37-14.54H127Zm-4.61-5.47-2.07-5.58-2.06,5.58Z"/>
  <polygon class="cls-1"
    points="143.68 17.54 139.45 17.54 139.45 29.65 137.02 29.65 137.02 17.54 132.79 17.54 132.79 15.11 143.68 15.11 143.68 17.54"/>
  <polygon class="cls-1"
    points="148.84 17.54 148.86 21.16 154.75 21.16 154.75 23.59 148.86 23.59 148.84 27.22 156 27.22 156 29.65 146.42 29.65 146.42 15.11 156 15.11 156 17.54 148.84 17.54"/>
</svg>