<svg id="Layer_1" data-name="Layer 1" xmlns="http://www.w3.org/2000/svg" viewBox="0 0 381.79 234.01"><defs><style>.cls-1{fill:#f72717;}</style></defs><path class="cls-1" d="M149.42,105.34c-6.79,0-11.1,4.42-12.44,10.28h24.16C160.33,109.15,155.8,105.34,149.42,105.34Z" transform="translate(-4.73 -3.73)"/><path class="cls-1" d="M84.86,107.91c-8.64,0-14.09,6-14.09,14.29s5.55,14.39,14.09,14.39,14.29-5.86,14.29-14.39S93.38,107.91,84.86,107.91Z" transform="translate(-4.73 -3.73)"/><path class="cls-1" d="M259.22,94.24c-13,0-23.08,5.18-24.73,18.63h0C230.38,51.92,182.3,3.73,120.32,3.73A117,117,0,0,0,12,76.55H53.49l-2.15,14H18.74v14.81H48.26L46,118.81H18.74v8.64c0,5.24,2.26,7.71,6.59,7.71H53.19l-2.26,14H20.07a24.43,24.43,0,0,1-4.28-.38h0a13.83,13.83,0,0,1-8.65-4.88,11.41,11.41,0,0,1-2.09-4.33c-.17-.69-.19-.73-.32-1.27.22,1.74.59,4.08.76,4.94.94,4.88,2.13,9,2.24,9.3a117.2,117.2,0,0,0,226.4-3.38H218.4V120.57c0-7.71-3-12.65-10.59-12.65s-10.59,4.94-10.59,12.65v28.58H181.49V116.66c0-15.53,11.31-22.41,26.33-22.41s26.32,6.89,26.32,22.41v32.49H250V120.57c0-7.71,2.06-12.65,9.56-12.65a17.73,17.73,0,0,1,6.27,1.23l3-13.78A75.23,75.23,0,0,0,259.22,94.24ZM115,119c0,19.64-11.62,31.15-30.85,31.15-17.79,0-29.82-11.93-29.82-28,0-16.76,11.41-28,28.48-28,7.81,0,13.57,3.08,16.45,6.17V76.55H115V119Zm39.68,19.33a30.81,30.81,0,0,0,12.94-3.19l-1.31,12.44a41.52,41.52,0,0,1-15.42,2.57c-18.1,0-30.85-10.59-30.85-28.58,0-15.63,11.41-27.35,28.89-27.35,19.74,0,29.61,12.54,29.2,31.87H137.39C138.94,135,147.36,138.35,154.66,138.35Z" transform="translate(-4.73 -3.73)"/><path class="cls-1" d="M294.89,94.24C277.41,94.24,266,106,266,121.59c0,18,12.75,28.58,30.85,28.58a41.52,41.52,0,0,0,15.42-2.57l1.31-12.44a30.76,30.76,0,0,1-12.92,3.19c-7.3,0-15.73-3.39-17.27-12.24h40.72C324.51,106.78,314.64,94.24,294.89,94.24ZM283,115.63c1.33-5.86,5.66-10.28,12.44-10.28,6.38,0,10.89,3.8,11.72,10.28Z" transform="translate(-4.73 -3.73)"/><path class="cls-1" d="M370.77,76.55V100.4c-2.88-3.08-8.64-6.17-16.45-6.17-17.07,0-28.48,11.21-28.48,28,0,16,12,28,29.82,28,19.23,0,30.85-11.52,30.85-31.15V76.55ZM356.38,136.6c-8.53,0-14.09-6.17-14.09-14.39s5.45-14.29,14.09-14.29,14.29,5.76,14.29,14.29S364.92,136.6,356.38,136.6Z" transform="translate(-4.73 -3.73)"/></svg>