<?xml version="1.0" encoding="utf-8"?>
<!-- Generator: Adobe Illustrator 16.0.0, SVG Export Plug-In . SVG Version: 6.00 Build 0)  -->
<!DOCTYPE svg PUBLIC "-//W3C//DTD SVG 1.1//EN" "http://www.w3.org/Graphics/SVG/1.1/DTD/svg11.dtd">
<svg version="1.1" id="Layer_1" xmlns="http://www.w3.org/2000/svg" xmlns:xlink="http://www.w3.org/1999/xlink" x="0px" y="0px"
	 width="730px" height="145px" viewBox="0 0 730 145" enable-background="new 0 0 730 145" xml:space="preserve">
<g id="_x2D__Přetisk" display="none">
	<path display="inline" fill="#ADACA5" d="M19.57-11.342c8.24,0,16.02,1.74,22.91,4.82c11.02,4.93,19.75,13.31,24.399,23.53
		c0.37,0.81,0.71,1.63,1.03,2.46l0.42,1.14l30.32,83.31l16.57,45.529l0.021-0.01c1.99,5.42,7.19,9.301,13.31,9.301l18.353,0.002
		v26.521v1.829l-20.072-0.003c-8.24,0-16.02-1.738-22.899-4.818c-11.021-4.92-19.75-13.301-24.4-23.529
		c-0.38-0.813-0.72-1.631-1.04-2.471c-0.14-0.352-0.27-0.721-0.4-1.092L47.75,71.817l-16.56-45.52l-0.021,0.01
		c-1.989-5.43-7.199-9.3-13.31-9.3H-0.5v-26.52v-1.83L19.57-11.342z"/>
</g>
<g id="_x2D__Velká_mezera" display="none">
	<g display="inline">
		<path fill="#ADACA5" d="M31.17,26.308l0.021-0.01L44.309,62.36h6.499l16.308-44.79c-0.082-0.187-0.151-0.377-0.236-0.563
			c-4.65-10.22-13.38-18.6-24.4-23.53c-6.891-3.08-14.67-4.82-22.91-4.82H-0.5v1.83v26.52h18.36
			C23.97,17.007,29.18,20.877,31.17,26.308z"/>
		<path fill="#ADACA5" d="M115.24,149.438l-0.021,0.012l-13.125-36.064h-6.508L79.283,158.18c0.083,0.188,0.161,0.373,0.247,0.559
			c4.65,10.23,13.38,18.609,24.4,23.529c6.88,3.08,14.659,4.819,22.899,4.819l20.072,0.003v-1.83v-26.52l-18.353-0.004
			C122.43,158.736,117.23,154.857,115.24,149.438z"/>
	</g>
</g>
<g>
	<g id="_x2D__Standart">
		<g>
			<path fill="#FBB723" d="M86.988,117.486l-0.015,0.007L75.876,86.998h-6.149l-11.254,30.926l1.369,3.76
				c0.096,0.271,0.191,0.539,0.292,0.795c0.235,0.613,0.482,1.211,0.76,1.806c3.399,7.476,9.778,13.597,17.83,17.194
				c5.028,2.248,10.712,3.521,16.733,3.521L110.125,145v-1.337v-19.379l-13.411-0.002C92.242,124.282,88.441,121.446,86.988,117.486
				z"/>
			<path fill="#FBB723" d="M25.555,27.513l0.015-0.008l11.095,30.497h6.143L54.064,27.07l-1.354-3.723l-0.308-0.833
				c-0.234-0.607-0.482-1.207-0.753-1.798c-3.396-7.468-9.776-13.592-17.83-17.194C28.785,1.272,23.1,0,17.079,0H2.412v1.338v19.379
				h13.417C20.295,20.716,24.102,23.544,25.555,27.513z"/>
		</g>
	</g>
	<g id="Základ_-">
		<path fill="#041F34" d="M212.788,31.173c-0.963-0.321-2.089-0.588-3.375-0.803c-1.286-0.214-2.573-0.322-3.858-0.322
			c-2.467,0-4.448,0.43-5.948,1.286c-1.501,0.859-2.68,2.01-3.536,3.457c-0.86,1.446-1.447,3.081-1.77,4.902
			c-0.321,1.824-0.482,3.646-0.482,5.467v8.038h17.845v19.61h-17.845v60.447h-26.363V72.809h-14.63v-19.61h14.63v-7.717
			c0-4.928,0.533-9.617,1.606-14.066c1.07-4.445,2.918-8.358,5.546-11.734c2.625-3.377,6.162-6.055,10.61-8.039
			c4.446-1.981,9.991-2.974,16.639-2.974c2.251,0,4.475,0.136,6.672,0.4c2.195,0.271,4.204,0.672,6.028,1.207L212.788,31.173z"/>
		<path fill="#041F34" d="M278.014,133.258v-11.096h-0.322c-0.963,1.825-2.225,3.537-3.777,5.146c-1.555,1.606-3.375,3-5.466,4.18
			s-4.396,2.143-6.913,2.895c-2.52,0.746-5.172,1.125-7.959,1.125c-5.358,0-9.886-0.966-13.584-2.893
			c-3.695-1.932-6.699-4.424-9.002-7.477c-2.304-3.057-3.966-6.535-4.981-10.449c-1.021-3.912-1.527-7.903-1.527-11.977V53.198
			h26.524v43.403c0,2.25,0.162,4.396,0.482,6.432c0.322,2.035,0.938,3.857,1.85,5.467c0.91,1.607,2.115,2.867,3.617,3.775
			c1.5,0.912,3.481,1.367,5.947,1.367c4.607,0,8.12-1.713,10.53-5.144c2.412-3.431,3.618-7.45,3.618-12.06V53.198h26.363v80.06
			H278.014z"/>
		<path fill="#041F34" d="M375.099,133.258V89.529c0-2.252-0.188-4.393-0.563-6.432c-0.377-2.035-0.991-3.83-1.85-5.386
			c-0.859-1.554-2.063-2.786-3.617-3.698c-1.555-0.908-3.51-1.367-5.867-1.367c-2.358,0-4.422,0.459-6.189,1.367
			c-1.769,0.912-3.244,2.172-4.421,3.778c-1.181,1.606-2.063,3.454-2.652,5.548c-0.591,2.09-0.885,4.256-0.885,6.51v43.406h-26.526
			V53.198h25.563V64.29h0.321c0.966-1.715,2.223-3.401,3.778-5.063c1.551-1.66,3.375-3.08,5.466-4.26
			c2.089-1.179,4.364-2.145,6.832-2.895c2.464-0.748,5.089-1.125,7.876-1.125c5.359,0,9.914,0.963,13.664,2.895
			c3.752,1.93,6.779,4.418,9.084,7.475c2.306,3.054,3.963,6.564,4.984,10.529c1.018,3.967,1.526,7.932,1.526,11.896v49.517H375.099
			L375.099,133.258z"/>
		<path fill="#041F34" d="M481.435,133.258v-10.449h-0.32c-2.574,4.072-6.246,7.207-11.014,9.402
			c-4.77,2.195-9.834,3.295-15.193,3.295c-6.002,0-11.358-1.18-16.074-3.535c-4.719-2.356-8.709-5.49-11.979-9.404
			s-5.762-8.441-7.475-13.586c-1.717-5.145-2.572-10.5-2.572-16.074c0-5.571,0.885-10.904,2.652-15.995
			c1.77-5.091,4.284-9.565,7.557-13.427c3.268-3.854,7.234-6.909,11.898-9.161c4.659-2.25,9.885-3.375,15.672-3.375
			c5.893,0,10.877,1.125,14.951,3.375c4.071,2.251,7.231,4.718,9.483,7.396h0.322V11.721h26.362v121.537H481.435z M480.468,93.064
			c0-2.57-0.453-5.09-1.363-7.557c-0.912-2.464-2.199-4.658-3.861-6.591c-1.662-1.93-3.672-3.481-6.026-4.664
			c-2.357-1.176-5.037-1.767-8.037-1.767c-3.111,0-5.842,0.591-8.199,1.767c-2.36,1.183-4.34,2.709-5.949,4.584
			c-1.604,1.875-2.813,4.046-3.614,6.513c-0.806,2.465-1.205,4.98-1.205,7.553c0,2.574,0.399,5.119,1.205,7.637
			c0.803,2.521,2.01,4.742,3.614,6.673c1.607,1.929,3.589,3.484,5.949,4.662c2.357,1.181,5.088,1.767,8.199,1.767
			c3,0,5.68-0.586,8.037-1.767c2.354-1.178,4.364-2.733,6.026-4.662c1.662-1.931,2.949-4.124,3.861-6.591
			C480.015,98.158,480.468,95.637,480.468,93.064z"/>
		<path fill="#FBB723" d="M527.046,133.258V11.721h26.848v121.537H527.046z"/>
		<path fill="#FBB723" d="M603.978,27.638c0,2.036-0.402,3.938-1.205,5.707c-0.805,1.769-1.875,3.295-3.215,4.582
			c-1.342,1.286-2.949,2.306-4.824,3.055c-1.877,0.751-3.832,1.125-5.867,1.125c-4.287,0-7.877-1.419-10.77-4.26
			c-2.896-2.839-4.34-6.243-4.34-10.208c0-1.931,0.373-3.779,1.123-5.547c0.75-1.769,1.819-3.295,3.217-4.583
			c1.391-1.286,3-2.33,4.822-3.134c1.819-0.804,3.801-1.205,5.946-1.205c2.037,0,3.992,0.376,5.867,1.125
			c1.875,0.75,3.484,1.769,4.824,3.055s2.41,2.814,3.217,4.582C603.576,23.698,603.978,25.602,603.978,27.638z M575.685,133.258
			v-80.06h26.363v80.06H575.685z"/>
		<path fill="#FBB723" d="M727.589,72.809v-19.61h-18.81v-21.06h-25.883v21.06h-28.149V45.16c0-1.821,0.163-3.643,0.481-5.466
			c0.32-1.821,0.91-3.456,1.771-4.903c0.856-1.446,2.034-2.598,3.534-3.457c1.5-0.856,3.482-1.285,5.951-1.285
			c1.285,0,2.57,0.108,3.855,0.321c1.286,0.216,2.413,0.481,3.377,0.804l1.77-20.898c-1.823-0.535-3.834-0.937-6.028-1.207
			c-2.197-0.265-4.423-0.4-6.673-0.4c-6.646,0-12.192,0.992-16.641,2.974c-4.447,1.984-7.981,4.662-10.609,8.039
			c-2.625,3.375-4.477,7.289-5.547,11.734c-1.071,4.449-1.604,9.139-1.604,14.066V53.2h-14.629v19.61h14.629v60.447h26.363V72.809
			h28.311v33.85c0,4.298,0.484,8.193,1.445,11.686c0.967,3.489,2.547,6.498,4.744,9.024c2.194,2.526,5.114,4.46,8.762,5.801
			c3.643,1.343,8.143,2.015,13.504,2.015c2.785,0,5.57-0.24,8.359-0.722c2.784-0.483,5.088-1.047,6.911-1.688l-0.319-19.289
			c-0.967,0.427-2.172,0.75-3.617,0.962c-1.447,0.219-2.814,0.321-4.102,0.321c-3.753,0-6.351-0.94-7.796-2.821
			c-1.448-1.886-2.17-4.709-2.17-8.476V72.809H727.589z"/>
		<path fill="#041F34" d="M95.457,0c-6.021,0-11.705,1.272-16.741,3.522c-8.052,3.603-14.432,9.727-17.83,17.194
			c-0.271,0.591-0.518,1.19-0.753,1.798l-0.307,0.833L45.707,62.141H25.195v20.713h12.972l-0.498,1.369l-12.108,33.271l-0.016-0.007
			c-1.454,3.96-5.253,6.796-9.726,6.796l-13.408,0.002V145l14.667-0.001c6.021,0,11.705-1.272,16.733-3.521
			c8.052-3.598,14.432-9.721,17.829-17.194c0.277-0.595,0.525-1.19,0.76-1.806c0.102-0.256,0.198-0.524,0.292-0.795l14.131-38.828
			h20.513V62.141H74.362l0.501-1.373l12.101-33.265l0.016,0.008c1.453-3.969,5.26-6.796,9.726-6.796h13.418V0H95.457z"/>
	</g>
</g>
</svg>
