<svg xmlns="http://www.w3.org/2000/svg" xmlns:xlink="http://www.w3.org/1999/xlink" viewBox="0 0 185.96 50.17">
  <defs>
    <style>
      .cls-1 {
        fill: url(#Nepojmenovaný_přechod_6);
      }

      .cls-2 {
        fill: url(#Nepojmenovaný_přechod_6-2);
      }

      .cls-3 {
        fill: url(#Nepojmenovaný_přechod_6-3);
      }

      .cls-4 {
        fill: url(#Nepojmenovaný_přechod_5);
      }

      .cls-5 {
        fill: #071d30;
      }

      .cls-6 {
        fill: url(#Nepojmenovaný_přechod_5-2);
      }

      .cls-7 {
        fill: url(#Nepojmenovaný_přechod_6-4);
      }
    </style>
    <linearGradient id="Nepojmenovaný_přechod_6" data-name="Nepojmenovaný přechod 6" x1="-363.05" y1="16.56" x2="-359.96" y2="17.24" gradientTransform="translate(3244.77 -792) scale(8.88 48.32)" gradientUnits="userSpaceOnUse">
      <stop offset="0" stop-color="#10d0a0"/>
      <stop offset="0.99" stop-color="#29edb5"/>
    </linearGradient>
    <linearGradient id="Nepojmenovaný_přechod_6-2" x1="-362.37" y1="19.78" x2="-361.37" y2="19.78" gradientTransform="translate(3255.98 -784.7) scale(8.94 41.09)" xlink:href="#Nepojmenovaný_přechod_6"/>
    <linearGradient id="Nepojmenovaný_přechod_6-3" x1="-363.08" y1="23.97" x2="-360.85" y2="24.68" gradientTransform="translate(3240.34 -776.81) scale(8.94 33.2)" xlink:href="#Nepojmenovaný_přechod_6"/>
    <linearGradient id="Nepojmenovaný_přechod_5" data-name="Nepojmenovaný přechod 5" x1="-363.08" y1="39.16" x2="-360.85" y2="39.87" gradientTransform="translate(3240.34 -1281.06) scale(8.94 33.2)" gradientUnits="userSpaceOnUse">
      <stop offset="0" stop-color="#f4632c"/>
      <stop offset="0.99" stop-color="#f6921e"/>
    </linearGradient>
    <linearGradient id="Nepojmenovaný_přechod_5-2" x1="-334.11" y1="143.92" x2="-333.11" y2="143.92" gradientTransform="translate(1901.19 -786.41) scale(5.52)" xlink:href="#Nepojmenovaný_přechod_5"/>
    <linearGradient id="Nepojmenovaný_přechod_6-4" x1="-334.11" y1="143.92" x2="-333.11" y2="143.92" gradientTransform="translate(1966.28 -786.41) scale(5.52)" xlink:href="#Nepojmenovaný_přechod_6"/>
  </defs>
  <title>Datovýlogo-color-text-black-patria_</title>
  <g id="Vrstva_2" data-name="Vrstva 2">
    <g id="Vrstva_1-2" data-name="Vrstva 1">
      <g>
        <g>
          <path class="cls-1" d="M40.2,10.8h0V0s-8.9,3.2-8.9,11.4h0v.1h0V36.4h0v12s8.9-1.8,8.9-10.8h0Z"/>
          <path class="cls-2" d="M24.5,18.1h0V7.3s-8.9,3.2-8.9,11.4h0v.1h0l.1,17.7h0v12s8.9-1.8,8.9-10.8h0Z"/>
          <path class="cls-3" d="M8.9,26h0V15.2S0,18.4,0,26.6H0v.1H0l.1,9.8h0v12S9,46.7,9,37.7H9Z"/>
          <path class="cls-4" d="M8.9,26h0V15.19S0,18.39,0,26.59H0v.1H0l.1,9.8h0v12S9,46.69,9,37.69H9Z"/>
          <g>
            <path class="cls-5" d="M59,14a2.8,2.8,0,0,1,2.8,2.8V34.3A2.8,2.8,0,0,1,59,37.1a2.88,2.88,0,0,1-2.8-2.9V16.8A2.73,2.73,0,0,1,59,14"/>
            <path class="cls-5" d="M124.1,14a2.8,2.8,0,0,1,2.8,2.8V34.3a2.8,2.8,0,0,1-2.8,2.8,2.88,2.88,0,0,1-2.8-2.9V16.8a3,3,0,0,1,2.8-2.8"/>
            <path class="cls-5" d="M112.15.92a2.8,2.8,0,0,1,2.8,2.8v22.6h0A11.62,11.62,0,0,1,102.55,37a11.83,11.83,0,0,1-10.7-12.5,11.63,11.63,0,0,1,11.5-10.7,11.25,11.25,0,0,1,5.1,1.2l.9.5V3.62a2.84,2.84,0,0,1,2.8-2.7m-8.8,30.7a6.24,6.24,0,0,0,6.1-5.5v-.2h0v-1.4a6.17,6.17,0,1,0-6.1,7.1"/>
            <path class="cls-5" d="M77.32,13.87a9.5,9.5,0,0,1,9.5,9.5v10.9a2.8,2.8,0,1,1-5.6,0V22.77h0a4,4,0,0,0-4.3-3.8,4.12,4.12,0,0,0-3.7,4.1v.1c0,.1.1.3.1.4v10.6a2.8,2.8,0,0,1-5.6,0V22.77h0a9.68,9.68,0,0,1,9.6-8.9"/>
            <path class="cls-5" d="M145,13.87A11.46,11.46,0,0,1,156.37,24v.1a1.48,1.48,0,0,1,.1.7v13.8a11.61,11.61,0,0,1-11.6,11.6h0a11.45,11.45,0,0,1-10.3-6.4h0l-.3-.5a2.85,2.85,0,0,1,1.1-3.4,2.3,2.3,0,0,1,1.4-.4,2.61,2.61,0,0,1,2.2,1.2,6.41,6.41,0,0,1,.7,1.2h0a6.23,6.23,0,0,0,8.6,1.6,6.49,6.49,0,0,0,2.7-5l-.1-1.1v-2l-1,.5a11.57,11.57,0,1,1-5.1-22h.2m0,17.8a6.09,6.09,0,0,0,6.1-5.5v-1.4a6.12,6.12,0,0,0-6.8-5.5,6.19,6.19,0,0,0-5.5,6.2,6.37,6.37,0,0,0,6.2,6.2"/>
            <path class="cls-5" d="M174.46,13.87a11.55,11.55,0,1,1-11.6,11.6,11.52,11.52,0,0,1,11.6-11.6m0,17.8a6.2,6.2,0,1,0-6.2-6.2h0a6.23,6.23,0,0,0,6.2,6.2h0"/>
          </g>
          <circle class="cls-6" cx="59" cy="8.3" r="2.8"/>
          <circle class="cls-7" cx="124.1" cy="8.3" r="2.8"/>
        </g>
        <g>
          <path class="cls-5" d="M58.25,42.18a3.15,3.15,0,0,1,1.8.44A1.53,1.53,0,0,1,60.68,44a1.87,1.87,0,0,1-.17.82,1.39,1.39,0,0,1-.5.55,2.46,2.46,0,0,1-.79.31,5.55,5.55,0,0,1-1,.09h-.61v2.06h-.78V42.32a4,4,0,0,1,.73-.11Zm.07.68-.76,0v2.18h.58a5.08,5.08,0,0,0,.72-.05,1.49,1.49,0,0,0,.54-.18.8.8,0,0,0,.34-.34,1.12,1.12,0,0,0,.12-.55,1.07,1.07,0,0,0-.12-.53.9.9,0,0,0-.34-.33,1.42,1.42,0,0,0-.49-.17A3.7,3.7,0,0,0,58.32,42.86Z"/>
          <path class="cls-5" d="M65.2,45.46l.32.42c.13.17.27.37.41.58s.27.43.41.66.25.45.35.66h-.85c-.11-.2-.22-.41-.35-.62s-.25-.4-.38-.59-.25-.37-.38-.53-.24-.31-.34-.44H63.26v2.17h-.77V42.32a3.87,3.87,0,0,1,.73-.11l.74,0a3.06,3.06,0,0,1,1.78.44,1.5,1.5,0,0,1,.61,1.31,1.58,1.58,0,0,1-.29,1A1.75,1.75,0,0,1,65.2,45.46ZM63.06,40.7l.31-.35.78.7.78-.7.31.35-1.09,1.15Zm1,2.16-.76,0V45h.55a5.2,5.2,0,0,0,.72,0,1.33,1.33,0,0,0,.54-.15.75.75,0,0,0,.34-.32,1,1,0,0,0,.12-.54,1.05,1.05,0,0,0-.12-.52.89.89,0,0,0-.32-.32,1.44,1.44,0,0,0-.48-.17A3.61,3.61,0,0,0,64,42.86Z"/>
          <path class="cls-5" d="M68.44,42.24h.77v5.54h-.77Z"/>
          <path class="cls-5" d="M75.3,47.78l-.41-.66c-.15-.25-.31-.5-.49-.77l-.55-.8-.56-.79L72.74,44c-.17-.22-.34-.42-.48-.59v4.33H71.5V42.24h.61q.38.39.81.93c.28.35.56.72.84,1.09s.55.75.8,1.11.45.69.62,1v-4.1h.76v5.54Z"/>
          <path class="cls-5" d="M82,47.78c-.09-.24-.17-.47-.25-.71s-.16-.47-.25-.71H79l-.51,1.42h-.8c.21-.59.41-1.13.6-1.63s.37-1,.54-1.42.36-.87.54-1.28.36-.81.55-1.21h.71c.19.4.38.8.55,1.21s.36.83.53,1.28.37.92.55,1.42.39,1,.6,1.63Zm-.72-2.06c-.17-.46-.34-.91-.51-1.34s-.34-.86-.53-1.26c-.18.4-.36.82-.53,1.26s-.33.88-.5,1.34Zm0-4.92L80.1,41.89l-.38-.33,1-1.24Z"/>
          <path class="cls-5" d="M86,47.23c.82,0,1.22-.28,1.22-.83a.87.87,0,0,0-.11-.44,1.06,1.06,0,0,0-.29-.31,1.69,1.69,0,0,0-.42-.23l-.5-.19a5.89,5.89,0,0,1-.58-.24,2.25,2.25,0,0,1-.47-.31,1.22,1.22,0,0,1-.31-.43,1.34,1.34,0,0,1-.12-.6,1.39,1.39,0,0,1,.5-1.13,2,2,0,0,1,1.36-.41,3.27,3.27,0,0,1,.92.11,2,2,0,0,1,.6.23l-.24.63a2.57,2.57,0,0,0-.5-.2,2.59,2.59,0,0,0-.78-.1,1.84,1.84,0,0,0-.41,0,1.16,1.16,0,0,0-.34.14.92.92,0,0,0-.23.25.81.81,0,0,0,0,.72.91.91,0,0,0,.25.27,1.63,1.63,0,0,0,.37.21l.47.19.66.29a2.46,2.46,0,0,1,.52.34,1.61,1.61,0,0,1,.34.48,1.67,1.67,0,0,1,.12.67,1.31,1.31,0,0,1-.54,1.12,2.48,2.48,0,0,1-1.5.39,3.78,3.78,0,0,1-.6,0,4.53,4.53,0,0,1-.49-.11,2,2,0,0,1-.37-.13l-.25-.11.23-.64a4.42,4.42,0,0,0,.56.23A2.8,2.8,0,0,0,86,47.23Zm-.85-6.53.31-.35.78.7.77-.7.31.35L86.2,41.85Z"/>
          <path class="cls-5" d="M91.22,40.8l-1.13,1.09-.37-.33,1-1.24Zm-1.36,1.44h.78v5.54h-.78Z"/>
          <path class="cls-5" d="M96.79,42.18a3.15,3.15,0,0,1,1.8.44A1.53,1.53,0,0,1,99.22,44a1.87,1.87,0,0,1-.17.82,1.39,1.39,0,0,1-.5.55,2.46,2.46,0,0,1-.79.31,5.55,5.55,0,0,1-1.05.09H96.1v2.06h-.78V42.32a4,4,0,0,1,.73-.11Zm.07.68-.76,0v2.18h.58A5.08,5.08,0,0,0,97.4,45a1.49,1.49,0,0,0,.54-.18.8.8,0,0,0,.34-.34,1.12,1.12,0,0,0,.12-.55,1.07,1.07,0,0,0-.12-.53.9.9,0,0,0-.34-.33,1.42,1.42,0,0,0-.49-.17A3.7,3.7,0,0,0,96.86,42.86Z"/>
          <path class="cls-5" d="M104.5,47.78c-.09-.24-.17-.47-.25-.71s-.17-.47-.25-.71h-2.51L101,47.78h-.8c.21-.59.41-1.13.6-1.63s.36-1,.54-1.42.36-.87.54-1.28.35-.81.55-1.21h.71c.19.4.38.8.55,1.21s.35.83.53,1.28.36.92.55,1.42.39,1,.6,1.63Zm-.72-2.06c-.18-.46-.34-.91-.51-1.34s-.35-.86-.53-1.26c-.18.4-.36.82-.53,1.26s-.33.88-.5,1.34Z"/>
          <path class="cls-5" d="M110.26,42.24v.67h-1.75v4.87h-.77V42.91H106v-.67Z"/>
          <path class="cls-5" d="M114.75,45.46l.32.42c.13.17.27.37.41.58s.27.43.41.66a7.16,7.16,0,0,1,.35.66h-.85c-.11-.2-.22-.41-.35-.62s-.25-.4-.38-.59-.25-.37-.38-.53-.24-.31-.34-.44h-1.13v2.17H112V42.32a3.87,3.87,0,0,1,.73-.11l.74,0a3.06,3.06,0,0,1,1.78.44,1.71,1.71,0,0,1,.32,2.26A1.71,1.71,0,0,1,114.75,45.46Zm-1.18-2.6-.76,0V45h.56a5.39,5.39,0,0,0,.72,0,1.43,1.43,0,0,0,.54-.15.81.81,0,0,0,.34-.32,1,1,0,0,0,.12-.54,1.05,1.05,0,0,0-.12-.52.92.92,0,0,0-.33-.32,1.3,1.3,0,0,0-.48-.17A3.61,3.61,0,0,0,113.57,42.86Z"/>
          <path class="cls-5" d="M118.05,42.24h.77v5.54h-.77Z"/>
          <path class="cls-5" d="M124.9,47.78c-.09-.24-.17-.47-.25-.71s-.17-.47-.25-.71h-2.51l-.51,1.42h-.8l.59-1.63c.19-.5.37-1,.55-1.42s.36-.87.53-1.28.36-.81.56-1.21h.71c.19.4.37.8.55,1.21s.35.83.53,1.28.36.92.55,1.42.39,1,.6,1.63Zm-.73-2.06-.5-1.34c-.17-.44-.35-.86-.53-1.26-.18.4-.36.82-.53,1.26s-.33.88-.5,1.34Z"/>
        </g>
      </g>
    </g>
  </g>
</svg>
