<svg width="306" height="48" viewBox="0 0 306 48" fill="none" xmlns="http://www.w3.org/2000/svg">
<path d="M89.6372 41.0376H66V7H73.5639V34.2301H89.6372V41.0376Z" fill="#030300"/>
<path d="M105.494 14.753C107.448 14.753 109.292 15.1154 111.026 15.8403C112.759 16.5337 114.256 17.4949 115.517 18.7241C116.809 19.9532 117.817 21.3872 118.542 23.026C119.299 24.6649 119.677 26.414 119.677 28.2735C119.677 28.7147 119.645 29.1402 119.582 29.5499C119.551 29.9281 119.503 30.322 119.44 30.7318H98.8288C99.3645 32.087 100.215 33.2058 101.382 34.0882C102.579 34.9392 103.95 35.3646 105.494 35.3646C106.629 35.3646 107.685 35.1125 108.662 34.6083C109.639 34.104 110.443 33.4422 111.073 32.6227H118.92C118.448 33.9464 117.77 35.1756 116.888 36.3101C116.037 37.4447 115.012 38.4217 113.815 39.2411C112.649 40.0291 111.356 40.6436 109.938 41.0849C108.52 41.5576 107.039 41.794 105.494 41.794C103.54 41.794 101.697 41.4473 99.9633 40.7539C98.2299 40.0291 96.7172 39.0521 95.425 37.8229C94.1643 36.5938 93.1558 35.1598 92.3994 33.5209C91.6746 31.8821 91.3121 30.1329 91.3121 28.2735C91.3121 26.414 91.6746 24.6649 92.3994 23.026C93.1558 21.3872 94.1643 19.9532 95.425 18.7241C96.7172 17.4949 98.2299 16.5337 99.9633 15.8403C101.697 15.1154 103.54 14.753 105.494 14.753ZM112.16 25.8152C111.624 24.46 110.758 23.3569 109.56 22.506C108.362 21.6236 107.007 21.1823 105.494 21.1823C103.95 21.1823 102.579 21.6236 101.382 22.506C100.215 23.3569 99.3645 24.46 98.8288 25.8152H112.16Z" fill="#030300"/>
<path d="M153.934 14.753C155.888 14.753 157.653 15.1154 159.229 15.8403C160.805 16.5337 162.144 17.4949 163.247 18.7241C164.35 19.9532 165.201 21.3872 165.8 23.026C166.399 24.6649 166.698 26.414 166.698 28.2735V41.0376H159.607V28.2735C159.607 27.2965 159.497 26.3825 159.276 25.5316C159.055 24.6491 158.709 23.8927 158.236 23.2624C157.763 22.6321 157.165 22.1278 156.44 21.7496C155.746 21.3714 154.911 21.1823 153.934 21.1823C152.957 21.1823 152.106 21.3714 151.381 21.7496C150.688 22.1278 150.105 22.6321 149.632 23.2624C149.159 23.8927 148.813 24.6491 148.592 25.5316C148.371 26.3825 148.261 27.2965 148.261 28.2735V41.0376H141.17V28.2735C141.17 27.2965 141.06 26.3825 140.839 25.5316C140.618 24.6491 140.272 23.8927 139.799 23.2624C139.326 22.6321 138.727 22.1278 138.003 21.7496C137.309 21.3714 136.474 21.1823 135.497 21.1823C134.52 21.1823 133.669 21.3714 132.944 21.7496C132.251 22.1278 131.668 22.6321 131.195 23.2624C130.722 23.8927 130.376 24.6491 130.155 25.5316C129.934 26.3825 129.824 27.2965 129.824 28.2735V41.0376H122.733V28.2735C122.733 26.414 123.032 24.6649 123.631 23.026C124.23 21.3872 125.081 19.9532 126.184 18.7241C127.287 17.4949 128.627 16.5337 130.202 15.8403C131.778 15.1154 133.543 14.753 135.497 14.753C137.357 14.753 139.074 15.147 140.65 15.9349C142.257 16.6913 143.613 17.7313 144.716 19.055C145.819 17.7313 147.158 16.6913 148.734 15.9349C150.341 15.147 152.075 14.753 153.934 14.753Z" fill="#030300"/>
<path d="M197.924 28.2735C197.924 30.1329 197.546 31.8821 196.79 33.5209C196.065 35.1598 195.056 36.5938 193.764 37.8229C192.504 39.0521 191.022 40.0291 189.32 40.7539C187.619 41.4473 185.791 41.794 183.837 41.794C181.883 41.794 180.055 41.4473 178.353 40.7539C176.651 40.0291 175.154 39.0521 173.862 37.8229C172.601 36.5938 171.593 35.1598 170.836 33.5209C170.111 31.8821 169.749 30.1329 169.749 28.2735C169.749 26.414 170.111 24.6649 170.836 23.026C171.593 21.3872 172.601 19.9532 173.862 18.7241C175.154 17.4949 176.651 16.5337 178.353 15.8403C180.055 15.1154 181.883 14.753 183.837 14.753C185.791 14.753 187.619 15.1154 189.32 15.8403C191.022 16.5337 192.504 17.4949 193.764 18.7241C195.056 19.9532 196.065 21.3872 196.79 23.026C197.546 24.6649 197.924 26.414 197.924 28.2735ZM190.833 28.2735C190.833 27.2965 190.644 26.3825 190.266 25.5316C189.919 24.6491 189.431 23.8927 188.8 23.2624C188.17 22.6321 187.429 22.1278 186.579 21.7496C185.728 21.3714 184.814 21.1823 183.837 21.1823C182.86 21.1823 181.946 21.3714 181.095 21.7496C180.244 22.1278 179.503 22.6321 178.873 23.2624C178.243 23.8927 177.738 24.6491 177.36 25.5316C177.013 26.3825 176.84 27.2965 176.84 28.2735C176.84 29.2505 177.013 30.1802 177.36 31.0627C177.738 31.9136 178.243 32.6542 178.873 33.2846C179.503 33.9149 180.244 34.4192 181.095 34.7974C181.946 35.1755 182.86 35.3646 183.837 35.3646C184.814 35.3646 185.728 35.1755 186.579 34.7974C187.429 34.4192 188.17 33.9149 188.8 33.2846C189.431 32.6542 189.919 31.9136 190.266 31.0627C190.644 30.1802 190.833 29.2505 190.833 28.2735Z" fill="#030300"/>
<path d="M214.222 14.753C216.176 14.753 217.957 15.1154 219.564 15.8403C221.203 16.5337 222.605 17.4949 223.771 18.7241C224.937 19.9532 225.836 21.3872 226.466 23.026C227.128 24.6649 227.459 26.414 227.459 28.2735V41.0376H220.368V28.2735C220.368 27.2965 220.226 26.3825 219.942 25.5316C219.69 24.6491 219.296 23.8927 218.76 23.2624C218.256 22.6321 217.61 22.1278 216.822 21.7496C216.066 21.3714 215.199 21.1823 214.222 21.1823C213.245 21.1823 212.362 21.3714 211.575 21.7496C210.818 22.1278 210.172 22.6321 209.636 23.2624C209.132 23.8927 208.738 24.6491 208.454 25.5316C208.202 26.3825 208.076 27.2965 208.076 28.2735V41.0376H200.985V28.2735C200.985 26.414 201.3 24.6649 201.931 23.026C202.592 21.3872 203.506 19.9532 204.672 18.7241C205.839 17.4949 207.225 16.5337 208.833 15.8403C210.471 15.1154 212.268 14.753 214.222 14.753Z" fill="#030300"/>
<path d="M244.732 14.753C246.686 14.753 248.53 15.1154 250.263 15.8403C251.997 16.5337 253.494 17.4949 254.755 18.7241C256.047 19.9532 257.055 21.3872 257.78 23.026C258.536 24.6649 258.915 26.414 258.915 28.2735C258.915 28.7147 258.883 29.1402 258.82 29.5499C258.789 29.9281 258.741 30.322 258.678 30.7318H238.067C238.602 32.087 239.453 33.2058 240.619 34.0882C241.817 34.9392 243.188 35.3646 244.732 35.3646C245.867 35.3646 246.923 35.1125 247.9 34.6083C248.877 34.104 249.68 33.4422 250.311 32.6227H258.158C257.686 33.9464 257.008 35.1756 256.126 36.3101C255.275 37.4447 254.25 38.4217 253.053 39.2411C251.887 40.0291 250.594 40.6436 249.176 41.0849C247.758 41.5576 246.277 41.794 244.732 41.794C242.778 41.794 240.935 41.4473 239.201 40.7539C237.468 40.0291 235.955 39.0521 234.663 37.8229C233.402 36.5938 232.394 35.1598 231.637 33.5209C230.912 31.8821 230.55 30.1329 230.55 28.2735C230.55 26.414 230.912 24.6649 231.637 23.026C232.394 21.3872 233.402 19.9532 234.663 18.7241C235.955 17.4949 237.468 16.5337 239.201 15.8403C240.935 15.1154 242.778 14.753 244.732 14.753ZM251.398 25.8152C250.862 24.46 249.996 23.3569 248.798 22.506C247.6 21.6236 246.245 21.1823 244.732 21.1823C243.188 21.1823 241.817 21.6236 240.619 22.506C239.453 23.3569 238.602 24.46 238.067 25.8152H251.398Z" fill="#030300"/>
<path d="M261.971 28.2735C261.971 26.414 262.286 24.6649 262.916 23.026C263.578 21.3872 264.492 19.9532 265.658 18.7241C266.824 17.4949 268.211 16.5337 269.818 15.8403C271.457 15.1154 273.254 14.753 275.208 14.753H276.153V21.1823C275.176 21.1823 274.246 21.3714 273.364 21.7496C272.513 22.1278 271.772 22.6321 271.142 23.2624C270.512 23.8927 270.008 24.6491 269.629 25.5316C269.251 26.3825 269.062 27.2965 269.062 28.2735V41.0376H261.971V28.2735Z" fill="#030300"/>
<path d="M306 28.2735C306 30.1329 305.622 31.8821 304.865 33.5209C304.141 35.1598 303.132 36.5938 301.84 37.8229C300.579 39.0521 299.098 40.0291 297.396 40.7539C295.694 41.4473 293.866 41.794 291.912 41.794C289.958 41.794 288.13 41.4473 286.428 40.7539C284.727 40.0291 283.229 39.0521 281.937 37.8229C280.677 36.5938 279.668 35.1598 278.912 33.5209C278.187 31.8821 277.824 30.1329 277.824 28.2735C277.824 26.414 278.187 24.6649 278.912 23.026C279.668 21.3872 280.677 19.9532 281.937 18.7241C283.229 17.4949 284.727 16.5337 286.428 15.8403C288.13 15.1154 289.958 14.753 291.912 14.753C293.866 14.753 295.694 15.1154 297.396 15.8403C299.098 16.5337 300.579 17.4949 301.84 18.7241C303.132 19.9532 304.141 21.3872 304.865 23.026C305.622 24.6649 306 26.414 306 28.2735ZM298.909 28.2735C298.909 27.2965 298.72 26.3825 298.342 25.5316C297.995 24.6491 297.506 23.8927 296.876 23.2624C296.246 22.6321 295.505 22.1278 294.654 21.7496C293.803 21.3714 292.889 21.1823 291.912 21.1823C290.935 21.1823 290.021 21.3714 289.17 21.7496C288.319 22.1278 287.579 22.6321 286.948 23.2624C286.318 23.8927 285.814 24.6491 285.436 25.5316C285.089 26.3825 284.916 27.2965 284.916 28.2735C284.916 29.2505 285.089 30.1802 285.436 31.0627C285.814 31.9136 286.318 32.6542 286.948 33.2846C287.579 33.9149 288.319 34.4192 289.17 34.7974C290.021 35.1755 290.935 35.3646 291.912 35.3646C292.889 35.3646 293.803 35.1755 294.654 34.7974C295.505 34.4192 296.246 33.9149 296.876 33.2846C297.506 32.6542 297.995 31.9136 298.342 31.0627C298.72 30.1802 298.909 29.2505 298.909 28.2735Z" fill="#030300"/>
<path fill-rule="evenodd" clip-rule="evenodd" d="M5.9975e-06 37.3333C5.74e-06 43.2244 4.77563 48 10.6667 48L21.3333 48C36.0609 48 48 36.0609 48 21.3333L48 8C48 3.58172 44.4183 -1.56562e-07 40 -3.49691e-07L26.6667 -9.32509e-07C11.9391 -1.57627e-06 7.10752e-06 11.9391 6.46376e-06 26.6667L5.9975e-06 37.3333ZM29.8885 6.62219L29.8438 6.66687C16.9556 7.672 6.67202 17.9556 5.6669 30.8438L5.62219 30.8885C4.93231 28.9184 4.55722 26.8004 4.55722 24.5947C4.55722 14.0806 13.0806 5.55722 23.5947 5.55722C25.8004 5.55722 27.9184 5.93231 29.8885 6.62219Z" fill="#FFE333"/>
</svg>
