<svg width="158" height="35" viewBox="0 0 158 35" fill="none" xmlns="http://www.w3.org/2000/svg">
<path fill-rule="evenodd" clip-rule="evenodd" d="M21.9771 4.76233C23.0958 4.76233 24.1562 5.26855 25.1352 6.27964L25.3482 6.50946C25.77 6.98425 26.1663 7.54918 26.5297 8.1923L26.618 8.355L26.5076 8.46014C25.2521 9.69905 24.1896 11.449 23.303 13.5411C22.6648 15.0473 22.1982 16.5298 21.8924 17.7758C21.3796 19.8635 21.1012 22.5331 21.2645 24.7749C21.5044 28.0729 22.6265 29.775 24.2703 30.2505C24.5664 30.3358 24.8682 30.3787 25.1708 30.3787C25.8941 30.3787 26.6095 30.135 27.2475 29.671C29.209 28.2453 30.5024 24.8523 30.6956 18.8614L30.7071 18.341C30.7475 15.0471 30.1638 11.7923 29.0673 9.11473L28.977 8.902L29.0274 8.87219C29.5743 8.57287 30.1352 8.41746 30.7106 8.40479L30.8643 8.40876C31.331 8.4287 31.8343 8.51836 32.0357 8.60673L32.049 8.613L32.2555 8.96773C33.6555 11.4475 34.4069 14.2314 34.4451 17.1116V17.5684L34.4344 17.9957C34.2705 22.4014 32.4509 26.5051 29.2822 29.5932C26.0665 32.7274 21.8398 34.4468 17.3542 34.4468L17.2366 34.4464L16.8043 34.4381C7.52827 34.1453 0.131565 26.4472 0.251437 17.1285L0.263112 16.6774C0.374164 13.8265 1.18866 11.0957 2.61555 8.68032L2.78 8.408L2.9382 8.40012L3.19925 8.39599L3.50803 8.41385C4.34319 8.48515 5.14065 8.83938 5.90012 9.47908L5.966 9.537L5.85538 9.763C4.7611 12.0684 4.10761 14.967 4.04317 17.832C3.94565 22.149 5.14141 26.121 7.0548 27.7376C7.84371 28.4043 8.75005 28.6687 9.66487 28.4933C10.4267 28.3469 11.0593 27.8857 11.5378 27.136C12.8079 25.1488 12.8902 20.9112 12.0903 17.6936L11.9692 17.22C11.1824 14.2309 10.0245 11.4449 8.43161 9.42928L8.294 9.261L8.35251 9.17219C9.44776 7.52977 10.7817 6.62924 12.2363 6.62924L12.5054 6.63574C13.5701 6.6877 14.4949 7.04992 15.2949 7.68663L15.343 7.727L15.2197 7.96883C14.2335 9.97462 13.592 12.4009 13.4348 14.3047C13.1541 17.7117 13.5836 20.1029 14.7402 21.4149C15.3228 22.076 16.0789 22.4478 16.9208 22.4847C17.8223 22.5233 18.6313 22.1717 19.2531 21.4735C20.5049 20.0674 20.8932 17.3351 20.3509 13.9659L20.2817 13.5634C19.8889 11.4162 19.1153 9.27009 17.8273 7.59456L17.697 7.433L17.7584 7.34227C18.9448 5.62034 20.3568 4.76233 21.9771 4.76233ZM27.453 10.178L27.6422 10.697C28.4801 13.116 28.903 15.9806 28.8122 18.8011L28.7781 19.6201L28.7304 20.3987C28.4127 24.8239 27.4183 27.2173 26.1393 28.1467C25.6596 28.4955 25.2078 28.56 24.7942 28.4401C23.8139 28.1566 23.2897 26.6489 23.1438 24.6382C22.9952 22.595 23.2521 20.1409 23.7226 18.2249L23.8518 17.7199C24.3068 16.0127 25.004 14.0823 25.9477 12.3715L26.1369 12.0376C26.5174 11.3844 26.9096 10.8184 27.3125 10.3405L27.453 10.178ZM7.33 11.09L7.39596 11.1828L7.55189 11.4167C8.73473 13.2346 9.62691 15.5963 10.2615 18.1481C10.9622 20.9662 10.8621 24.6935 9.9499 26.1215C9.75039 26.434 9.54181 26.5979 9.309 26.6428C8.96401 26.7093 8.63096 26.6027 8.27104 26.2983C6.84795 25.0955 5.84437 21.5391 5.92691 17.8744C5.97686 15.6631 6.41824 13.3999 7.16633 11.4919L7.33 11.09ZM16.692 9.262L16.8619 9.52904C17.7052 10.9221 18.2246 12.6148 18.4904 14.2655C18.9067 16.8509 18.7184 19.2404 17.8458 20.2207C17.6016 20.4947 17.3303 20.6154 17.0022 20.6018C16.6799 20.5879 16.3979 20.4456 16.1539 20.1689C15.428 19.3453 15.0588 17.546 15.3131 14.4599C15.4298 13.041 15.8614 11.25 16.5252 9.65123L16.692 9.262ZM17.3447 0.25L17.5677 0.251778C22.1354 0.310466 26.405 2.14364 29.5932 5.41475L29.9324 5.77378C30.0442 5.89581 30.1548 6.02022 30.2643 6.14707L30.581 6.525L30.3949 6.53408C29.6187 6.5912 28.8821 6.81538 28.1824 7.19422L28.144 7.216L28.0689 7.0829C27.5916 6.271 27.0619 5.56076 26.489 4.96895C25.1679 3.60411 23.6064 2.87799 21.977 2.87799L21.7173 2.88324C19.65 2.96716 17.8205 4.05612 16.3637 6.05534L16.337 6.092L16.0881 5.91101C14.9884 5.15088 13.7068 4.74526 12.2365 4.74526L11.9868 4.75096C10.079 4.83834 8.33164 5.92734 6.95433 7.86761L6.933 7.897L6.66298 7.69102C5.88859 7.12892 5.05425 6.76083 4.16218 6.60564L4.069 6.591L4.27777 6.33923C7.50161 2.51597 12.2451 0.25 17.3447 0.25Z" fill="#5A008C"/>
<path fill-rule="evenodd" clip-rule="evenodd" d="M44.7912 17.9267C44.7912 16.5962 45.7295 15.6647 47.0157 15.6647C48.3458 15.6647 49.2612 16.5962 49.2612 17.9048V25H52.0524V17.9267C52.0524 16.5962 52.9684 15.6647 54.2769 15.6647C55.607 15.6647 56.5007 16.5962 56.5007 17.9048V25H59.2919V17.5723C59.2919 15.0664 57.5038 13.2927 54.9747 13.2927C53.4048 13.2927 52.1186 14.0017 51.3769 15.133C50.7013 13.9797 49.4793 13.2927 47.9972 13.2927C46.6232 13.2927 45.489 13.891 44.7912 14.8665V13.5146H42V25H44.7912V17.9267Z" fill="#5A008C"/>
<path fill-rule="evenodd" clip-rule="evenodd" d="M68.2876 25C71.5441 25 73.702 22.8486 73.702 19.5678V13.2927H70.9406V19.789C70.9406 21.6073 69.8407 22.6047 68.2876 22.6047C66.7559 22.6047 65.6552 21.6073 65.6552 19.789V13.2927H62.8945V19.5678C62.8945 22.8486 65.0517 25 68.2876 25Z" fill="#5A008C"/>
<path fill-rule="evenodd" clip-rule="evenodd" d="M77.8857 20.4553C77.8857 23.6636 79.7127 25.7946 84.149 24.718V22.3173C81.6483 23.0353 80.6694 22.138 80.6694 20.4331V15.5422H84.149V13.1867H80.6694V10H77.8857V13.1867H75.8633V15.5422H77.8857V20.4553Z" fill="#5A008C"/>
<path fill-rule="evenodd" clip-rule="evenodd" d="M98.1991 13.2927H95.4377V19.789C95.4377 21.6073 94.3377 22.6054 92.7846 22.6054C91.2529 22.6054 90.1529 21.6073 90.1529 19.789V13.2927H87.3916V19.5678C87.3916 22.8493 89.5488 25 92.7846 25C96.0418 25 98.1991 22.8493 98.1991 19.5678V13.2927Z" fill="#5A008C"/>
<path fill-rule="evenodd" clip-rule="evenodd" d="M109.062 25H111.853V17.9267C111.853 16.5962 112.769 15.6647 114.077 15.6647C115.407 15.6647 116.301 16.5962 116.301 17.9048V25H119.093V17.5723C119.093 15.0664 117.304 13.2927 114.775 13.2927C113.205 13.2927 111.918 14.0017 111.177 15.1323C110.501 13.9797 109.279 13.2927 107.797 13.2927C106.423 13.2927 105.289 13.891 104.592 14.8665V13.5146H101.801V25H104.592V17.9267C104.592 16.5962 105.529 15.6647 106.816 15.6647C108.146 15.6647 109.062 16.5962 109.062 17.9048V25Z" fill="#5A008C"/>
<path fill-rule="evenodd" clip-rule="evenodd" d="M130.381 19.789C130.381 21.6073 129.281 22.6054 127.728 22.6054C126.196 22.6054 125.096 21.6073 125.096 19.789V13.2927H122.335V19.5678C122.335 22.8493 124.492 25 127.728 25C130.986 25 133.142 22.8493 133.142 19.5678V13.2927H130.381V19.789Z" fill="#5A008C"/>
<path fill-rule="evenodd" clip-rule="evenodd" d="M140.83 10H138.046V13.1867H136.024V15.5422H138.046V20.4553C138.046 23.6636 139.874 25.7946 144.31 24.718V22.3173C141.809 23.0353 140.83 22.138 140.83 20.4331V15.5422H144.31V13.1867H140.83V10Z" fill="#5A008C"/>
<path fill-rule="evenodd" clip-rule="evenodd" d="M155.238 19.789C155.238 21.6073 154.139 22.6054 152.585 22.6054C151.054 22.6054 149.954 21.6073 149.954 19.789V13.2927H147.192V19.5678C147.192 22.8493 149.35 25 152.585 25C155.843 25 158 22.8493 158 19.5678V13.2927H155.238V19.789Z" fill="#5A008C"/>
</svg>
