<?xml version="1.0" encoding="utf-8"?>
<!-- Generator: Adobe Illustrator 21.1.0, SVG Export Plug-In . SVG Version: 6.00 Build 0)  -->
<svg xmlns="http://www.w3.org/2000/svg" xmlns:xlink="http://www.w3.org/1999/xlink" version="1.1" id="Vrstva_1" x="0px" y="0px" viewBox="0 0 493 166.7" style="enable-background:new 0 0 493 166.7;" xml:space="preserve">
<style type="text/css">
	.st0{fill:none;}
	.st1{fill:#14C850;}
	.st2{fill:#FFFFFF;}
	.st3{fill:#00A03C;}
	.st4{fill:#008C32;}
</style>
<g>
	<path class="st0" d="M293,61.3c-6.9,0-12,5.3-12,12.7c0,7.5,5.1,12.7,12,12.7c7,0,12.1-5.3,12.1-12.7C305.1,66.6,300,61.3,293,61.3   z"/>
	<path class="st0" d="M226.2,61.3c-7,0-11.8,5.4-11.8,12.7c0,7.4,4.9,12.7,11.8,12.7c7.1,0,11.9-5.5,11.9-12.7   S233.4,61.3,226.2,61.3z"/>
	<polygon class="st0" points="6.1,120.4 80.2,163.2 154.3,120.4 125.3,103.6 114.9,109.6 80.2,129.6 35.1,103.6  "/>
	<polygon class="st1" points="160.4,46.3 80.2,0 0,46.3 0,46.3 80.2,92.6 160.4,46.3 160.4,46.3  "/>
	<polygon class="st1" points="114.9,109.6 125.3,103.6 154.3,120.4 80.2,163.2 6.1,120.4 35.1,103.6 0,83.3 0,83.3 32.1,101.9    0,120.4 80.2,166.7 160.4,120.4 128.3,101.9 160.4,83.3 160.4,83.3  "/>
	<path class="st2" d="M230.5,44.8c-7.5,0-12.5,3.2-15.9,7.5v-6h-17.1v84.3l17.7-10.2V96.6c3.4,4,8.2,6.7,15.3,6.7   c14.8,0,25.9-12.9,25.9-29.3C256.3,57.7,245.3,44.8,230.5,44.8z M226.2,86.8c-7,0-11.8-5.4-11.8-12.7c0-7.4,4.9-12.7,11.8-12.7   c7.1,0,11.9,5.5,11.9,12.7S233.4,86.8,226.2,86.8z"/>
	<path class="st2" d="M293,44.8c-17.4,0-30.1,12.5-30.1,29.3s12.7,29.3,30.1,29.3c17.4,0,30.2-12.5,30.2-29.3S310.4,44.8,293,44.8z    M293,86.8c-6.9,0-12-5.3-12-12.7c0-7.5,5.1-12.7,12-12.7c7,0,12.1,5.3,12.1,12.7C305.1,81.5,300,86.8,293,86.8z"/>
	<path class="st2" d="M349.7,52.7v-6.4h-17v55.6h17.7v-30c0-7,3.8-10,10.1-10c3.2,0,6.5,0.6,8.9,1.5l1.6-17.7   c-1.4-0.4-3.6-0.8-6.2-0.8C358.1,44.8,353,47.3,349.7,52.7z"/>
	<path class="st2" d="M415,86.8c-4.5,0-7.9-2.2-7.9-8.6V62h19V46.3h-19V18.5l-17.7,10.2v17.5H379V62h10.4v18.5   c0,13.9,6.7,22.8,21.6,22.8c9,0,14.4-2.6,19.7-6.2l-6.1-13.8C421.9,85,418.4,86.8,415,86.8z"/>
	<path class="st2" d="M475.3,46.3v30.2c0,7-3.9,10.3-9.1,10.3c-5.3,0-9.1-3.3-9.1-10.3V46.3h-17.7V78c0,17.4,12,25.3,26.8,25.3   c14.8,0,26.8-7.9,26.8-25.3V46.3H475.3z"/>
	<polygon class="st3" points="35.1,103.6 80.2,129.6 80.2,92.6 0,46.3 0,83.3  "/>
	<polygon class="st4" points="80.2,92.6 80.2,129.6 114.9,109.6 160.4,83.3 160.4,83.3 160.4,46.3  "/>
</g>
</svg>
