<?xml version="1.0" encoding="UTF-8"?>
<!-- Generator: Adobe Illustrator 23.0.0, SVG Export Plug-In . SVG Version: 6.00 Build 0)  -->
<svg width="703.39" height="215.03" version="1.1" viewBox="0 0 703.39 215.03" xmlns="http://www.w3.org/2000/svg">
<style type="text/css">
	.st0{fill-rule:evenodd;clip-rule:evenodd;fill:#00A687;}
</style>
<path class="st0" d="m77.38 182.68c-14.81-2.6-28.02-7.98-39.63-16.16-11.91-8.39-21.18-18.96-27.81-31.71s-9.94-26.76-9.94-42.03c0-17.45 4.24-33.13 12.71-47.06 8.47-13.92 20.13-24.83 34.98-32.72 14.85-7.88 31.58-11.83 50.21-11.83 18.62 0 35.36 3.94 50.21 11.83s26.51 18.79 34.98 32.72c8.47 13.92 12.71 29.61 12.71 47.06 0 19.8-5.41 37.29-16.23 52.47-9.62 13.5-22.2 23.59-37.73 30.26-1.39-.61-2.75-1.3-4.07-2.07-6.31-3.67-11.29-8.84-14.96-15.51-3.06-5.57-4.84-11.82-5.35-18.77 1.57-.69 3.11-1.47 4.61-2.34 7.21-4.19 12.92-10.11 17.11-17.74s6.29-16.4 6.29-26.3-2.1-18.66-6.29-26.3c-4.19-7.63-9.9-13.55-17.11-17.74s-15.27-6.29-24.16-6.29-16.94 2.1-24.16 6.29c-7.21 4.19-12.92 10.11-17.11 17.74s-6.29 16.4-6.29 26.3 2.1 18.66 6.29 26.3c4.19 7.63 9.9 13.55 17.11 17.74 6.26 3.64 13.15 5.7 20.66 6.18 5.4 8.41 12.3 15.57 20.7 21.49 7.49 5.28 15.74 9.22 24.75 11.84-1.3.53-2.62 1.03-3.96 1.51-25.24 7-45.62 6.54-58.52 4.84" clip-rule="evenodd" fill="#00a687" fill-rule="evenodd"/>
<path class="st0" d="m106.29 199.4c-10.41-7.33-18.52-16.57-24.31-27.72s-8.69-23.39-8.69-36.74c0-13.61 2.95-25.99 8.84-37.14-.02.74-.03 1.48-.03 2.23 0 13.35 2.9 25.6 8.69 36.74 14.79 28.45 53.72 50.5 83.91 36.92l-9.33 22.44 18.52 15.5c-26.2 7.11-55.83 3.1-77.6-12.23" clip-rule="evenodd" fill="#00a687" fill-rule="evenodd"/>
<path class="st0" d="m633.79 136.44c7.58 0 13.8-2.62 18.65-7.85s7.28-12.47 7.28-21.72c0-9.1-2.43-16.22-7.28-21.38-4.85-5.15-11.07-7.73-18.65-7.73s-13.8 2.58-18.65 7.73-7.28 12.28-7.28 21.38c0 9.25 2.43 16.49 7.28 21.72s11.07 7.85 18.65 7.85m0 34.33c-13.19 0-25.09-2.73-35.7-8.19s-18.91-13.04-24.9-22.74-8.98-20.69-8.98-32.97c0-12.13 2.99-23.04 8.98-32.75 5.99-9.7 14.25-17.24 24.79-22.63 10.54-5.38 22.47-8.07 35.82-8.07 13.34 0 25.32 2.69 35.93 8.07s18.87 12.89 24.79 22.51c5.91 9.63 8.87 20.58 8.87 32.86s-2.96 23.27-8.87 32.97-14.17 17.28-24.79 22.74c-10.63 5.47-22.6 8.2-35.94 8.2z" clip-rule="evenodd" fill="#00a687" fill-rule="evenodd"/>
<polygon class="st0" transform="translate(-59.14,-201.63)" points="498.36 370.36 498.36 201.63 541.57 201.63 541.57 290.09 585.68 247.11 636.85 247.11 585.68 299.86 641.17 370.36 588.86 370.36 571.39 348.52 559.77 333.99 559.93 333.88 542.49 311.01 541.32 345.9 541.57 345.74 541.57 370.36" clip-rule="evenodd" fill="#00a687" fill-rule="evenodd"/>
<path class="st0" d="m388.62 60.45c4.4-5.61 10.12-9.82 17.17-12.62s15.12-4.21 24.22-4.21v38.88c-3.94-.45-7.2-.68-9.78-.68-9.25 0-16.49 2.5-21.72 7.5s-7.85 12.66-7.85 22.97v56.62h-43.2v-123.24h41.16z" clip-rule="evenodd" fill="#00a687" fill-rule="evenodd"/>
<path class="st0" d="m272.96 74.32c-6.67 0-12.24 1.9-16.71 5.68-4.47 3.79-7.32 8.94-8.53 15.46h50.48c-1.21-6.52-4.05-11.67-8.53-15.46-4.47-3.78-10.04-5.68-16.71-5.68m65.72 33.2c0 .3-.23 3.87-.68 10.69h-89.59c1.82 6.37 5.34 11.26 10.57 14.67s11.79 5.12 19.67 5.12c5.91 0 11.03-.83 15.35-2.5s8.68-4.4 13.08-8.19l22.74 23.65c-11.98 13.34-29.49 20.01-52.53 20.01-14.4 0-27.06-2.73-37.98-8.19s-19.37-13.04-25.35-22.74c-5.99-9.7-8.98-20.69-8.98-32.97 0-12.13 2.92-23.01 8.76-32.63 5.84-9.63 13.91-17.17 24.22-22.63s21.91-8.19 34.79-8.19c12.28 0 23.42 2.54 33.43 7.62s17.93 12.43 23.76 22.06c5.82 9.63 8.74 21.03 8.74 34.22z" clip-rule="evenodd" fill="#00a687" fill-rule="evenodd"/>
</svg>
