<svg xmlns="http://www.w3.org/2000/svg" viewBox="0 0 513 59"><style>.st0,.st1,.st2{fill:#100158}.st1,.st2{fill-rule:evenodd;clip-rule:evenodd}.st2{fill:#eb2524}</style><filter filterUnits="userSpaceOnUse" height="30.4" id="d" width="29.7" x="0" y=".4"><feColorMatrix values="1 0 0 0 0 0 1 0 0 0 0 0 1 0 0 0 0 0 1 0"/></filter><path class="st0" d="M79.8 30.3h8c.5 0 1-.1 1.4-.2 1.2-.3 2.1-1.2 2.4-2.4s-.1-2.4-.9-3.3c-.8-.7-1.9-1.1-3-1.1h-7.9v7zm-5.6-11.8c4.9 0 9.9-.1 14.8 0 3.2-.1 6.2 1.7 7.6 4.6 1.1 2 1.2 4.4.3 6.5-.9 2.1-2.6 3.7-4.8 4.5-.5.2-1 .3-1.6.5 2.5 3.4 5 6.8 7.5 10.3h-6.3c-.2 0-.4-.1-.5-.2-2.2-3.2-4.4-6.3-6.6-9.5-.1-.2-.3-.3-.5-.3h-4.4v10h-5.5V18.5zM166.1 38c.4 1.5 1.6 2.7 3.2 3 1.6.4 3.3-.3 4.3-1.6 1.3-1.8 1.3-4.2.1-6-.8-1.1-2-1.7-3.3-1.8-1.3-.1-2.6.5-3.4 1.5-.7.9-1.1 2.1-1.2 3.3 0 .5.1 1.1.3 1.6zm8.1-8.8v-1.5h5.2V45h-5.2v-1.4h-.1c-1.1 1.2-2.6 1.9-4.3 2-2.4.3-4.9-.5-6.6-2.3-1.4-1.4-2.4-3.3-2.6-5.3-.4-2.2-.1-4.4.9-6.3 1.1-2.5 3.5-4.2 6.2-4.6 2.1-.4 4.2.1 5.9 1.4l.6.7m-63.7 5.2c-.2-1.9-1.9-3.3-3.8-3.2-1.8.1-3.3 1.4-3.6 3.2h7.4zm5.7 3.6h-13c0 .1 0 .2.1.3.6 1.7 2.2 2.8 3.9 2.9 1.8.1 3.5-.6 4.7-1.9l3.3 3.2c-1.1 1.2-2.6 2.1-4.2 2.6-2.6.8-5.3.7-7.8-.3-3-1.2-5-3.9-5.4-7.1-.5-2.8.4-5.7 2.4-7.8 1.5-1.7 3.7-2.7 6-2.8 2.4-.2 4.9.6 6.7 2.2 1.6 1.5 2.7 3.5 3 5.7.1 1 .1 2 .3 3M225 36.4c.1.6.2 1.1.3 1.7.4 1.5 1.7 2.7 3.3 3s3.2-.3 4.1-1.6c1-1.3 1.3-3 .8-4.6-.3-1.4-1.3-2.5-2.7-3-1.4-.5-2.8-.3-4 .5-1.1.9-1.8 2.4-1.8 4m4.4 9.2c-2.5.1-4.9-.8-6.8-2.5-1.5-1.3-2.4-3.2-2.7-5.1-.3-1.9-.1-3.9.7-5.7 1.2-2.7 3.7-4.6 6.6-5 2.2-.5 4.4-.3 6.5.6 3.1 1.2 5.2 4.1 5.4 7.5.4 2.7-.6 5.5-2.5 7.4-1.5 1.5-3.5 2.5-5.6 2.7-.5.1-1.1.1-1.6.1m-83.2-17.9v1.6l.8-.8c1.3-1 3-1.5 4.7-1.4.9 0 1.7.2 2.5.6 1.9.9 3.2 2.7 3.3 4.8.1.8.1 1.5.1 2.3V45h-5.3v-9.7c0-.7-.2-1.4-.4-2-.3-.9-1.2-1.6-2.2-1.6-.8-.1-1.7.1-2.4.6s-1.1 1.3-1.1 2.2c-.1.5-.1.9-.1 1.4V45h-5.3V27.7h5.4zM200 45h-5.3v-9.7c0-.7-.2-1.4-.4-2-.3-.9-1.2-1.6-2.2-1.6-.8-.1-1.7.1-2.4.6s-1.1 1.3-1.1 2.2c-.1.5-.1.9-.1 1.4V45h-5.3V27.7h5.3v1.6c.3-.3.6-.6.9-.8 2.1-1.6 4.9-1.8 7.2-.7 1.9.9 3.1 2.7 3.3 4.8.1.8.1 1.5.1 2.3V45zm2-1.7l2.1-3.8c1.4 1.1 3.1 1.7 4.8 1.9.9.2 1.8.1 2.6-.1l.6-.3c.4-.2.6-.6.6-1s-.3-.8-.7-.9c-.7-.3-1.4-.5-2.2-.6-1.3-.4-2.7-.6-4-1-1.6-.5-2.8-1.8-3.1-3.5-.3-1.4-.1-2.9.7-4.1s2-2.1 3.4-2.3c2.9-.8 5.9-.5 8.6.8.7.3 1.4.7 2.1 1.1l-2.1 3.7-.3-.2c-1.4-.9-2.9-1.5-4.5-1.7-.7-.1-1.4 0-2.1.2-.3.1-.6.3-.8.6-.2.2-.2.5-.1.8s.3.5.6.5c.7.2 1.5.4 2.2.6 1.3.3 2.6.5 3.9.9 1.4.3 2.5 1.2 3.2 2.5 1.1 2.4.3 5.2-1.8 6.8-1.2.8-2.5 1.2-3.9 1.4-2.9.4-5.8-.1-8.4-1.3-.5-.4-.9-.7-1.4-1m-81.8-11.2h-3v-4.4h2.5c.3 0 .4-.1.4-.4V24c.1-.8.2-1.6.5-2.4.6-1.7 2.1-3 3.9-3.2 1.9-.4 3.9-.2 5.7.5.3.1.4.3.3.6-.2 1.1-.3 2.2-.5 3.3 0 .2 0 .3-.1.4-.8-.2-1.5-.3-2.3-.5-.3-.1-.6-.1-.9 0-.8.1-1.3.8-1.3 1.6-.1 1.1 0 2.3 0 3.5h3.8V32h-3.8v13h-5.3V32.1h.1zm11.7-4.4h5.3V45h-5.3V27.7zm2.6-3.1c-.8.1-1.6-.2-2.2-.8-.6-.6-.9-1.4-.8-2.2.3-1.4 1.5-2.5 3-2.5s2.7 1.1 2.9 2.6c0 .8-.3 1.5-.9 2.1s-1.3.8-2 .8m123.8 7.1c3.8 0 5.8 2.7 5.8 6.2s-2 6.2-5.8 6.2-5.8-2.7-5.8-6.2 2.1-6.2 5.8-6.2zm0 10.7c2 0 3.7-1.6 3.7-4.5s-1.6-4.5-3.7-4.5c-2 0-3.7 1.6-3.7 4.5s1.7 4.4 3.7 4.5zm18.6 1.4h-2v-1.6c-.8 1.3-2.3 2-3.8 1.9-3.6 0-5.4-2.9-5.4-6.2s1.8-6.1 5.4-6.1c1.5-.1 2.9.6 3.8 1.9v-6.1h2v16.2zm-1.8-5.9c0-2.2-1.1-4.5-3.7-4.5-2.7 0-3.6 2.3-3.6 4.6s1.1 4.4 3.7 4.4c2.6-.1 3.6-2.3 3.6-4.5z"/><path class="st1" d="M27.5 4.5c8.3 10.4 17.7 19.8 26.9 29.3.2.2.6-.1.4-.4-9.2-9.5-18.6-19-26.9-29.3-.2-.3-.6.1-.4.4"/><path class="st1" d="M3.6 34.3c10.2-9.4 19.2-19.9 26.8-31.4.2-.3-.3-.5-.5-.3-7.6 11.5-16.6 22-26.7 31.3-.3.2.1.6.4.4"/><path class="st2" d="M3.6 31.2c8.6-9.6 17.1-19.3 25.2-29.3.2-.3-.2-.6-.4-.4-8.1 10-16.6 19.7-25.2 29.3-.3.3.1.6.4.4"/><path class="st1" d="M.4 32.4C9.7 21.8 19.2 11.4 28.6.8c.2-.3-.2-.6-.4-.4C18.9 11 9.4 21.4.1 32c-.3.3.1.7.3.4m2.5.7c8.5-9.3 16.9-18.7 25.4-28 .2-.3-.2-.6-.4-.4C19.4 14 11 23.4 2.5 32.7c-.2.3.2.6.4.4M29.6 2.6C37.9 13 47.3 22.4 56.5 31.9c.2.2.6-.1.4-.4C47.7 22 38.3 12.5 30 2.2c-.2-.3-.6.1-.4.4"/><path class="st1" d="M28.9 4.6c7.9 8.1 16.1 16.1 23.7 24.5.2.3.6-.1.4-.4-7.6-8.4-15.8-16.4-23.7-24.5-.2-.2-.6.2-.4.4"/><defs><filter id="Adobe_OpacityMaskFilter" filterUnits="userSpaceOnUse" x="27.6" y="1.59" width="29.71" height="30.42"><feColorMatrix values="1 0 0 0 0 0 1 0 0 0 0 0 1 0 0 0 0 0 1 0"/></filter></defs><mask maskUnits="userSpaceOnUse" x="27.6" y="1.59" width="29.71" height="30.42" id="e_1_"><path fill-rule="evenodd" clip-rule="evenodd" fill="#fff" d="M27.65 1.64h29.7v30.4h-29.7z" filter="url(#d)"/></mask><path d="M27.65 2.04c10.2 9.5 19.5 19.9 29.2 29.9.2.2.6-.1.4-.4-9.7-10-19-20.4-29.2-29.9-.2-.2-.6.2-.4.4" mask="url(#e_1_)" fill-rule="evenodd" clip-rule="evenodd" fill="#eb2524"/><path class="st1" d="M46 23.2c-.2 11.3-.1 22.7.3 34 0 .3.5.3.5 0-.4-11.3-.5-22.7-.3-34 0-.3-.5-.3-.5 0M49.6 24.9c-.2 10.3 0 20.5.6 30.8 0 .3.6.3.5 0-.5-10.3-.7-20.5-.6-30.8 0-.4-.5-.4-.5 0"/><path class="st2" d="M49.5 27.2c-.2 10.1-.2 20.1.7 30.1 0 .3.6.3.5 0-.9-10-.9-20.1-.7-30.1 0-.3-.5-.3-.5 0"/><path class="st1" d="M4.7 57c15.9-.4 31.9-.7 47.8-.7.3 0 .3-.5 0-.5-15.9 0-31.9.3-47.8.7-.4-.1-.4.5 0 .5m1.6-4.3c15.2.2 30.4.3 45.7-.1.3 0 .3-.5 0-.5-15.2.4-30.4.3-45.7.1-.4 0-.4.5 0 .5"/><path class="st2" d="M5.9 53.7c15.9.6 31.9.8 47.8.7.3 0 .3-.5 0-.5-15.9.1-31.8-.2-47.8-.7-.3 0-.3.5 0 .5"/><path class="st1" d="M10.6 24.1c.3 11.2.8 22.4 1.1 33.5 0 .3.5.3.5 0-.3-11.2-.8-22.4-1.1-33.5 0-.4-.5-.4-.5 0"/><defs><filter id="Adobe_OpacityMaskFilter_1_" filterUnits="userSpaceOnUse" x="9.3" y="26.08" width="1.21" height="32.55"><feColorMatrix values="1 0 0 0 0 0 1 0 0 0 0 0 1 0 0 0 0 0 1 0"/></filter></defs><path d="M9.4 26.31c-.3 10.8.1 21.4.6 32.1 0 .3.6.3.5 0-.5-10.7-.8-21.3-.6-32.1 0-.3-.5-.3-.5 0" mask="url(#g_1_)" fill-rule="evenodd" clip-rule="evenodd" fill="#100158"/><path class="st1" d="M8.3 29c0 9.2.2 18.5.5 27.7 0 .3.5.3.5 0-.3-9.2-.5-18.4-.5-27.7 0-.3-.5-.3-.5 0"/><path class="st2" d="M11.3 57.3c-.5-10.8-.9-21.6-1.4-32.3 0-.3-.5-.3-.5 0 .5 10.8.9 21.6 1.4 32.3-.1.3.5.3.5 0M1 32.3c5-5.1 9.6-10.6 14.3-16C19.8 11.2 24.8 6.1 28.6.4c.2-.3-.3-.5-.5-.3-3.8 5.8-9 11-13.6 16.2C10 21.6 5.6 27 .7 31.9c-.3.2.1.6.3.4M27.4 4.7C37 13.8 46.2 23.3 55 33.1c.2.3.6-.1.4-.4-8.8-9.9-18-19.3-27.6-28.4-.3-.2-.7.2-.4.4"/><path class="st2" d="M28 .8c9.2 8.6 18 17.7 26.3 27 .2.3.6-.1.4-.4C46.3 18.1 37.5 9 28.3.4c-.2-.2-.6.2-.3.4M46.7 23c0 10.8-1.5 21.7.2 32.4.1.3.6.2.5-.1-1.6-10.7-.1-21.5-.1-32.3 0-.4-.6-.4-.6 0m1.7 2.2c-.4 10.3-.2 20.6.6 30.9 0 .3.6.3.5 0-.7-10.3-.9-20.6-.5-30.9 0-.3-.6-.3-.6 0"/><path class="st2" d="M6 55.5c15.5 0 31.1-.2 46.6-.7.3 0 .3-.5 0-.5-15.5.4-31 .7-46.6.6-.3 0-.3.6 0 .6m.3-1.4c15.1.4 30.2-1.1 45.3-.1.3 0 .3-.5 0-.5-15.1-1.1-30.2.5-45.3 0-.4 0-.4.6 0 .6M28.5 3.8C22.1 12.7 15 21.1 7.3 29c-.2.2.1.6.4.4C15.4 21.5 22.5 13 29 4.1c.2-.3-.3-.6-.5-.3"/><path class="st2" d="M7.7 27.4c0 9.7.1 19.4.3 29.1 0 .3.5.3.5 0-.3-9.7-.4-19.4-.4-29.1.1-.4-.4-.4-.4 0"/><path class="st1" d="M21.7 33.6c5.7 0 11.4-.1 17.1-.1.3 0 .3-.5 0-.5H21.7c-.4 0-.4.6 0 .6"/><path class="st1" d="M38.5 33.4c.2 4.5.3 9 .4 13.6 0 .3.5.3.5 0-.1-4.5-.2-9-.4-13.6 0-.4-.5-.4-.5 0"/><path class="st1" d="M39.8 46.1c-6.2-.2-12.4-.2-18.7-.2-.3 0-.3.5 0 .5 6.2 0 12.5.1 18.7.2.3 0 .3-.5 0-.5M18.9 31.8c-.3 4.2-.3 8.4-.2 12.6 0 .3.5.3.5 0-.1-4.2-.1-8.4.2-12.6 0-.4-.5-.4-.5 0m1.3 1c.1 3.8.2 7.6.4 11.4 0 .3.5.3.5 0-.1-3.8-.2-7.6-.4-11.4.1-.3-.5-.3-.5 0"/><path class="st1" d="M37.1 34.8c-.1 4.3 0 8.6.2 12.9 0 .3.6.3.5 0-.2-4.3-.3-8.6-.2-12.9 0-.3-.5-.3-.5 0"/><path class="st1" d="M21.6 47.3c6.1-.1 12.2-.1 18.3 0 .3 0 .3-.5 0-.5-6.1-.1-12.2-.1-18.3 0-.3 0-.3.5 0 .5m-1.7-13.1c6.5.1 13 .1 19.5 0 .3 0 .3-.5 0-.5-6.5.1-13 .1-19.5 0-.3 0-.3.5 0 .5m6.4.8c4.5.2 9 .2 13.6.1.3 0 .3-.5 0-.5-4.5.1-9 .1-13.6-.1-.4 0-.4.5 0 .5"/><path class="st2" d="M19.2 31.8c0 4.7.3 9.5.1 14.2 0 .3.5.3.5 0 .2-4.7 0-9.5-.1-14.2 0-.3-.5-.3-.5 0m2.9 13.8c5.7 0 11.3.1 17 .1.3 0 .3-.5 0-.5-5.7 0-11.3-.1-17-.1-.3 0-.3.5 0 .5m15.8-7.2c0 2.1 0 4.3.1 6.4 0 .3.5.3.5 0 0-2.1-.1-4.2-.1-6.4.1-.3-.5-.3-.5 0m-14.2-5.6c4.7-.1 9.3-.1 14-.1.3 0 .3-.5 0-.5-4.7 0-9.3 0-14 .1-.3 0-.3.5 0 .5"/><path class="st1" d="M47.6 24.5c-.6 10.4-.5 20.8.3 31.2 0 .3.6.3.5 0-.8-10.4-.9-20.8-.3-31.2.1-.4-.4-.4-.5 0"/><linearGradient id="SVGID_1_" gradientUnits="userSpaceOnUse" x1="292.322" y1="50.078" x2="323.108" y2="19.292"><stop offset="0" stop-color="#100158"/><stop offset=".25" stop-color="#100158"/><stop offset=".321" stop-color="#39044e"/><stop offset=".452" stop-color="#7e0a3e"/><stop offset=".57" stop-color="#b60f30"/><stop offset=".671" stop-color="#de1227"/><stop offset=".751" stop-color="#f61421"/><stop offset=".8" stop-color="#ff151f"/><stop offset="1" stop-color="#ff151f"/></linearGradient><path id="SVGID_4_" d="M307.72 32.14l-14.36-13.88v32.86l14.29-13.82 2.71-2.61 8.05-7.79v15.58L313 37.24l-2.64 2.55 11.72 11.33V18.25l-14.36 13.89zm-10.7 10.34V26.9l8.05 7.79-8.05 7.79z" fill="url(#SVGID_1_)"/><path class="st0" d="M477.21 25.4v7.52h-1.18v-3.95l-2.85 4.23-2.85-4.23v3.95h-1.18V25.4l4.03 5.84 4.03-5.84zm9.76 3.9c0-2.08-1.7-3.76-3.8-3.76-2.1 0-3.8 1.69-3.8 3.76 0 2.08 1.7 3.77 3.8 3.77 2.1 0 3.8-1.69 3.8-3.77m-1.24 0c0 1.44-1.15 2.61-2.56 2.61-1.42 0-2.56-1.17-2.56-2.61s1.15-2.61 2.56-2.61c1.42.01 2.56 1.18 2.56 2.61m3.4-3.9v7.52h1.17v-4.98l5.87 5.26v-7.52h-1.18v4.98l-5.86-5.26zm10.74 3.39v-2.01h4.14v-1.09h-5.34v7.24h5.34v-1.07h-4.14v-2.04h3.96v-1.04h-3.96zm9.67 4.14v-2.84l2.96-4.4h-1.3l-2.26 3.35-2.26-3.35h-1.3l2.96 4.4v2.84h1.2zm-34.22 8.64c0-.86-.47-1.47-1.16-1.72.52-.26.89-.8.89-1.49 0-1.06-.85-1.89-2.13-1.89h-3.77v7.24h3.86c1.35-.01 2.31-.96 2.31-2.14m-4.97-2.09v-1.96h2.35c.71 0 1.15.44 1.15.98s-.44.98-1.15.98h-2.35zm0 3.18v-2.18h2.48c.77 0 1.26.49 1.26 1.09 0 .6-.49 1.09-1.26 1.09h-2.48zm8.2-.62h3.96l.92 1.66h1.33l-4.22-7.52-4.22 7.52h1.32l.91-1.66zm1.98-3.57l1.43 2.59h-2.87l1.44-2.59zm5.98-2.29v7.52h1.18v-4.98l5.86 5.26v-7.52h-1.18v4.98l-5.86-5.26zm10.74 5.12l1.26-1.14 2.76 3.54h1.48l-3.37-4.34 3.18-2.9h-1.63l-3.67 3.34v-3.34h-1.2v7.24h1.2v-2.4zm-152.42-2.73l-10.22-13.58v18.67h3.64v-8.2l6.58 8.92 6.58-8.92v8.2h3.64V24.99l-10.22 13.58zm28.36-3.88c0 3.19-2.55 5.77-5.71 5.77-3.15 0-5.71-2.58-5.71-5.77 0-3.19 2.55-5.77 5.71-5.77s5.71 2.58 5.71 5.77m3.83 0c0-5.18-4.27-9.38-9.54-9.38-5.26 0-9.54 4.2-9.54 9.38 0 5.18 4.27 9.38 9.54 9.38s9.54-4.21 9.54-9.38m2.39-9.7v18.67h3.64V32.57l14.15 11.81V25.72h-3.64v11.09l-14.15-11.82zm25.14 8.1v-4.02h10.06v-3.35H400.8v17.94h13.81v-3.29h-10.06v-4.09h9.63v-3.2h-9.63zm28.09-4.03l1.95-3.35h-17.92v3.35h5.4v14.59h3.75V29.06h6.82zm6.22 2.99l2.95 5.23h-5.89l2.94-5.23zm-4.6 8.17h9.22l1.94 3.44h4.14l-10.68-18.67-10.68 18.67h4.13l1.93-3.44zm23.92 10.63h.91V18.52h-.91v32.33z"/></svg>
