<svg xmlns="http://www.w3.org/2000/svg" viewBox="0 0 536.62 135.82"><defs><style>.cls-1,.cls-2{fill:#fff;}.cls-1{stroke:#fff;stroke-miterlimit:10;stroke-width:1.5px;}.cls-3{fill:#95c236;}.cls-4{fill:#e4032e;}.cls-5{fill:#1d1d1b;}</style></defs><g id="Vrstva_2" data-name="Vrstva 2"><g id="RepŹres"><line class="cls-1" x1="307.4" y1="8.56" x2="307.4" y2="135.82"/><path class="cls-2" d="M233.65,72.67c0-10.19-6.52-16.26-15.94-16.26a16.1,16.1,0,0,0-16.27,16.45c0,9.87,6.9,16.45,16.27,16.45,5,0,9.23-1.68,12-4.77v-.63l-5.68-4.61v0c-1.24,1.75-3.16,2.84-6.17,2.84-4.5,0-7.66-2.78-8.1-7.15h23.85Zm-23.6-3.35a7.64,7.64,0,0,1,7.59-6.27c4.18,0,7.15,2.47,7.6,6.27Z"/><path class="cls-2" d="M110.42,60.84a11.34,11.34,0,0,1,8.8-4.43,7.84,7.84,0,0,1,3,.5l-1.13,7-.45.45a8.37,8.37,0,0,0-2.15-.32c-3.42,0-6.33,1.9-8.1,5.7v19h-8.86V57h8.86Z"/><path class="cls-2" d="M158.77,72.86c0,9.43-7.15,16.45-17.22,16.45s-17.27-7-17.27-16.45,7.15-16.45,17.27-16.45S158.77,63.43,158.77,72.86Zm-25.63,0c0,5.51,3.61,8.8,8.41,8.8s8.36-3.29,8.36-8.8-3.61-8.8-8.36-8.8S133.14,67.35,133.14,72.86Z"/><path class="cls-2" d="M248.34,60.84a11.34,11.34,0,0,1,8.8-4.43,7.84,7.84,0,0,1,3,.5l-1.14,7-.44.45a8.37,8.37,0,0,0-2.15-.32c-3.42,0-6.33,1.9-8.1,5.7v19h-8.86V57h8.86Z"/><path class="cls-2" d="M187.45,57v2.78a12.37,12.37,0,0,0-8.92-3.41c-7.91,0-15.25,6-15.25,16.13s7.09,16.14,15.25,16.14a12.18,12.18,0,0,0,8.92-3.23v2.28c0,4.55-2.93,7.88-7.46,8.14-3.55.19-7.39-1.77-8.31-3l-5.23,5.37v.64a19.86,19.86,0,0,0,13.61,4.27c8.75-.33,15.81-6.59,15.81-15.77V57Zm0,17.21c0,4.37-3,7.34-7.59,7.34-4.3,0-8.16-2.47-8.16-9s3.86-9.05,8.16-9.05,7.59,2.85,7.59,7.41Z"/><path class="cls-3" d="M38.29,70.84h0l-5.23,5.24L27.18,82a3.86,3.86,0,0,0,0,5.48,4,4,0,0,0,5.73,0l5.76-5.76,8.88,8.88L81.07,57.05v-.91l-14-14Z"/><path class="cls-2" d="M38.67,81.68l-5.76,5.76a4,4,0,0,1-5.73,0,3.86,3.86,0,0,1,0-5.48l5.88-5.88-19-19-14,14V72L29.91,101.9a4.45,4.45,0,0,0,6.3,0L47.55,90.56Z"/></g><g id="fond"><path class="cls-2" d="M378.43,9.77a3.18,3.18,0,0,1-1.2,2.47,4.45,4.45,0,0,1-1.46.78,6.19,6.19,0,0,1-2,.28,9.76,9.76,0,0,1-2.26-.23,12.68,12.68,0,0,1-2.05-.69V10.44h.11a6.53,6.53,0,0,0,2,1.13,6.6,6.6,0,0,0,2.18.4,4,4,0,0,0,2.23-.54,1.65,1.65,0,0,0,.8-1.44,1.55,1.55,0,0,0-.37-1.14,2.73,2.73,0,0,0-1.16-.57A12.89,12.89,0,0,0,374,8c-.45-.06-.93-.15-1.45-.25a4.3,4.3,0,0,1-2.29-1.13,2.85,2.85,0,0,1-.74-2.06,2.89,2.89,0,0,1,1.23-2.4,5.06,5.06,0,0,1,3.13-.93,10.44,10.44,0,0,1,2.25.23,10.15,10.15,0,0,1,1.81.58V3.89h-.1A5.44,5.44,0,0,0,376.11,3a6.72,6.72,0,0,0-2.22-.37,3.5,3.5,0,0,0-2,.51,1.58,1.58,0,0,0-.76,1.33,1.65,1.65,0,0,0,.38,1.14,2.46,2.46,0,0,0,1.32.63c.33.08.81.16,1.42.27s1.14.21,1.56.32a4,4,0,0,1,2,1A2.74,2.74,0,0,1,378.43,9.77Z"/><path class="cls-2" d="M388.24,8.73a4.88,4.88,0,0,1-1.1,3.37,4.09,4.09,0,0,1-5.87,0,4.93,4.93,0,0,1-1.09-3.37,5,5,0,0,1,1.09-3.37,4.12,4.12,0,0,1,5.87,0A4.92,4.92,0,0,1,388.24,8.73Zm-1.52,0a4,4,0,0,0-.66-2.52,2.5,2.5,0,0,0-3.7,0,4,4,0,0,0-.66,2.52,4,4,0,0,0,.66,2.49,2.44,2.44,0,0,0,3.69,0A3.93,3.93,0,0,0,386.72,8.73Z"/><path class="cls-2" d="M397.75,13.09h-1.47v-1a7,7,0,0,1-1.42.89,3.57,3.57,0,0,1-1.5.32,2.78,2.78,0,0,1-2.15-.84,3.56,3.56,0,0,1-.76-2.47V4.37h1.47v5a9.06,9.06,0,0,0,.06,1.13,1.94,1.94,0,0,0,.27.81,1.23,1.23,0,0,0,.54.5,2.32,2.32,0,0,0,1,.16,3.11,3.11,0,0,0,1.25-.3,5.79,5.79,0,0,0,1.26-.76V4.37h1.47Z"/><path class="cls-2" d="M407.09,12.55a9.87,9.87,0,0,1-1.39.54,5,5,0,0,1-1.41.2,5.06,5.06,0,0,1-1.73-.28,3.36,3.36,0,0,1-1.35-.84,3.78,3.78,0,0,1-.89-1.42,6.06,6.06,0,0,1-.31-2,4.64,4.64,0,0,1,1.18-3.36,4.12,4.12,0,0,1,3.1-1.22,5,5,0,0,1,1.48.22,7.88,7.88,0,0,1,1.32.51V6.52H407a5.74,5.74,0,0,0-1.38-.8,3.8,3.8,0,0,0-1.4-.28,2.46,2.46,0,0,0-2,.84,3.68,3.68,0,0,0-.72,2.46,3.72,3.72,0,0,0,.7,2.43,2.47,2.47,0,0,0,2,.85,3.61,3.61,0,0,0,.91-.12,3.78,3.78,0,0,0,.82-.31,7,7,0,0,0,.61-.34l.44-.32h.08ZM406.84,0l-1.78,3h-1.77L401.5,0h1.25l1.44,2,1.44-2Z"/><path class="cls-2" d="M415.75,13.09h-1.46v-.93l-.52.38a4.41,4.41,0,0,1-.65.37,4.34,4.34,0,0,1-.84.3,4.15,4.15,0,0,1-1.12.13,2.76,2.76,0,0,1-2-.79,2.61,2.61,0,0,1-.82-2,2.7,2.7,0,0,1,.43-1.6A2.82,2.82,0,0,1,410,8a6.6,6.6,0,0,1,1.91-.47c.75-.09,1.55-.15,2.4-.19V7.1a1.86,1.86,0,0,0-.17-.83,1.25,1.25,0,0,0-.51-.51,2,2,0,0,0-.75-.24,5.33,5.33,0,0,0-.91-.07,5.67,5.67,0,0,0-1.29.16,9.31,9.31,0,0,0-1.47.44h-.08V4.55c.29-.07.7-.16,1.25-.25a8.73,8.73,0,0,1,1.6-.14,7.5,7.5,0,0,1,1.6.15,3.06,3.06,0,0,1,1.19.52,2.45,2.45,0,0,1,.75.93,3.46,3.46,0,0,1,.25,1.41ZM414.29,11V8.52c-.45,0-1,.06-1.58.11a8.67,8.67,0,0,0-1.44.23,2.39,2.39,0,0,0-1,.56,1.38,1.38,0,0,0-.39,1,1.39,1.39,0,0,0,.45,1.13,2.12,2.12,0,0,0,1.38.38,3.31,3.31,0,0,0,1.42-.3A6.42,6.42,0,0,0,414.29,11ZM414.82,0l-2.13,2.92h-1.16L412.93,0Z"/><path class="cls-2" d="M424.82,10.58a2.37,2.37,0,0,1-1,2,4.31,4.31,0,0,1-2.7.76,6.24,6.24,0,0,1-1.78-.23,7.59,7.59,0,0,1-1.35-.5V10.92h.07a5.78,5.78,0,0,0,1.55.83,4.69,4.69,0,0,0,1.63.31,3.05,3.05,0,0,0,1.52-.31,1.07,1.07,0,0,0,.55-1A1,1,0,0,0,423,10a2.88,2.88,0,0,0-1.14-.45l-.82-.16c-.33-.07-.64-.13-.92-.21a3,3,0,0,1-1.62-.89A2.22,2.22,0,0,1,418,6.82a2.37,2.37,0,0,1,.22-1,2.55,2.55,0,0,1,.67-.85,3.38,3.38,0,0,1,1.12-.58,5.06,5.06,0,0,1,1.51-.21,6.62,6.62,0,0,1,1.58.19,6.2,6.2,0,0,1,1.33.46V6.38h-.08a5.42,5.42,0,0,0-1.36-.7,4.75,4.75,0,0,0-1.58-.28,2.71,2.71,0,0,0-1.36.31,1,1,0,0,0-.55.92,1,1,0,0,0,.33.81,2.59,2.59,0,0,0,1.06.44c.27.07.58.13.91.19l.84.17a3.12,3.12,0,0,1,1.58.81A2.1,2.1,0,0,1,424.82,10.58Z"/><path class="cls-2" d="M431.45,13q-.42.11-.9.18a7.56,7.56,0,0,1-.87.07,2.73,2.73,0,0,1-2-.72,3.26,3.26,0,0,1-.69-2.31V5.6h-1V4.37h1V1.86h1.47V4.37h3V5.6h-3v4c0,.46,0,.81,0,1.07a1.72,1.72,0,0,0,.22.73,1,1,0,0,0,.47.45,2.16,2.16,0,0,0,.92.15,2.9,2.9,0,0,0,.75-.11l.56-.17h.08Z"/><path class="cls-2" d="M436.32,0l-2.13,2.92H433L434.43,0Zm-1.61,13.09h-1.47V4.37h1.47Z"/><path class="cls-2" d="M449.47,10.58a2.37,2.37,0,0,1-1,2,4.26,4.26,0,0,1-2.69.76,6.24,6.24,0,0,1-1.78-.23,8,8,0,0,1-1.36-.5V10.92h.08a5.63,5.63,0,0,0,1.55.83,4.65,4.65,0,0,0,1.63.31,3.08,3.08,0,0,0,1.52-.31,1.06,1.06,0,0,0,.54-1,1,1,0,0,0-.29-.79,2.88,2.88,0,0,0-1.14-.45l-.82-.16c-.34-.07-.64-.13-.92-.21a3.07,3.07,0,0,1-1.63-.89,2.22,2.22,0,0,1-.48-1.45,2.53,2.53,0,0,1,.22-1,2.58,2.58,0,0,1,.68-.85,3.23,3.23,0,0,1,1.11-.58,5.1,5.1,0,0,1,1.51-.21,6.71,6.71,0,0,1,1.59.19,6.4,6.4,0,0,1,1.33.46V6.38h-.08a5.32,5.32,0,0,0-1.37-.7,4.65,4.65,0,0,0-1.57-.28,2.71,2.71,0,0,0-1.36.31,1,1,0,0,0-.56.92,1,1,0,0,0,.34.81,2.59,2.59,0,0,0,1.06.44c.27.07.57.13.91.19l.84.17a3.16,3.16,0,0,1,1.58.81A2.1,2.1,0,0,1,449.47,10.58Z"/><path class="cls-2" d="M459.5,13.09h-1.94l-3.5-3.82-.95.91v2.91h-1.47V.94h1.47V8.73l4.24-4.36h1.85l-4.06,4Z"/><path class="cls-2" d="M468.28,13.09h-1.47v-1a7,7,0,0,1-1.42.89,3.57,3.57,0,0,1-1.5.32,2.74,2.74,0,0,1-2.14-.84A3.57,3.57,0,0,1,461,10V4.37h1.47v5a9.06,9.06,0,0,0,.06,1.13,1.94,1.94,0,0,0,.27.81,1.23,1.23,0,0,0,.54.5,2.32,2.32,0,0,0,1,.16,3.11,3.11,0,0,0,1.25-.3,5.79,5.79,0,0,0,1.26-.76V4.37h1.47Z"/><path class="cls-2" d="M478.85,8.63a5.76,5.76,0,0,1-.31,1.94,4.15,4.15,0,0,1-.86,1.48A3.57,3.57,0,0,1,475,13.27a4.71,4.71,0,0,1-1.23-.15,5.52,5.52,0,0,1-1.12-.46v3.65h-1.47V4.37h1.47v.91A5.67,5.67,0,0,1,474,4.46a3.77,3.77,0,0,1,1.56-.33A2.88,2.88,0,0,1,478,5.32,5.5,5.5,0,0,1,478.85,8.63Zm-1.52,0a4.2,4.2,0,0,0-.54-2.36,1.87,1.87,0,0,0-1.65-.78,3.12,3.12,0,0,0-1.28.28,5.66,5.66,0,0,0-1.22.72v4.94a5,5,0,0,0,1.07.38,4.49,4.49,0,0,0,1,.11,2.34,2.34,0,0,0,1.91-.83A3.76,3.76,0,0,0,477.33,8.66Z"/><path class="cls-2" d="M482.71,2.91h-1.65V1.38h1.65Zm-.09,10.18h-1.47V4.37h1.47Z"/><path class="cls-2" d="M492.82,13.09h-1.46v-5A9.79,9.79,0,0,0,491.29,7a2.19,2.19,0,0,0-.26-.83,1.2,1.2,0,0,0-.57-.49,2.5,2.5,0,0,0-.95-.16,3,3,0,0,0-1.26.3,6.53,6.53,0,0,0-1.25.76v6.51h-1.47V4.37H487v1a5.69,5.69,0,0,1,1.42-.89,3.63,3.63,0,0,1,1.51-.32,2.68,2.68,0,0,1,2.15.85,3.57,3.57,0,0,1,.74,2.45Z"/><path class="cls-2" d="M503,4.37,498,16.31h-1.57L498,12.67l-3.47-8.3h1.59l2.68,6.47,2.7-6.47Z"/></g><g id="Premier_plan" data-name="Premier plan"><path class="cls-2" d="M461.4,69.3l18.39-10.55c1.63-1,.71-1.93-.41-1.93v-.41h13.13v.41a17.64,17.64,0,0,0-6.15,2.45l-16.55,9.34,19.28,14.78c1.45,1.06,2.72,2.16,4.36,2.34v.42H480.27l-18.87-15V82.69a2.76,2.76,0,0,0,3,3v.42H450.21v-.41a2.76,2.76,0,0,0,3-3V59.86a2.76,2.76,0,0,0-3-3v-.41h14.23v.41a2.76,2.76,0,0,0-3,3Z"/><path class="cls-2" d="M536.62,77.66c0,5.14-4.82,8.42-16.42,8.49H497.81v-.41a2.76,2.76,0,0,0,3-3V59.86a2.76,2.76,0,0,0-3-3v-.41h23.73c9.81,0,13.27,3.17,13.27,6.86,0,5-5.3,6.68-10.23,7.13C529.77,70.4,536.62,72.1,536.62,77.66ZM526,64.22c0-4.08-4.8-4.62-9.72-4.58A67.09,67.09,0,0,0,509,60V68.8s2.91.13,4.85.13C523.64,68.86,526,67.61,526,64.22ZM518.3,82.76c4.2,0,9.38-.65,9.38-5.18,0-6.23-10.67-5.58-18.68-5.1v7.94c0,1.08,1.36,2.19,2.95,2.26C513.83,82.75,518.3,82.76,518.3,82.76Z"/><rect class="cls-2" x="368.42" y="39.99" width="62.49" height="62.49"/><rect class="cls-4" x="369.91" y="41.49" width="59.51" height="30.23"/><rect class="cls-5" x="369.91" y="71.24" width="59.51" height="29.75"/><rect class="cls-2" x="382.56" y="71.24" width="34" height="2.84"/></g></g></svg>