<svg width="149" height="22" viewBox="0 0 149 22" fill="none" xmlns="http://www.w3.org/2000/svg">
<path d="M12.6075 4.41124C12.2668 4.41124 11.7273 4.21456 11.3014 3.93359C10.0236 3.14687 9.00133 2.8659 7.49637 2.8659C4.94079 2.8659 3.57781 4.24266 3.57781 6.23755C3.57781 7.02427 3.77658 7.75479 4.37288 8.23244C4.9124 8.71009 5.56549 9.01916 6.7297 9.21584L9.31368 9.6092C11.273 9.91826 12.3804 10.3678 13.3174 11.2107C14.4816 12.2784 15.0779 13.7676 15.0779 15.6501C15.0779 19.6398 11.8693 22 7.326 22C4.74203 22 3.12349 21.4943 1.53335 20.5389C0.425929 19.8646 0 19.4151 0 18.6284C0 18.2631 0.17037 17.8416 0.454323 17.5607C0.738277 17.2797 1.05063 17.1673 1.41977 17.1673C1.8457 17.1673 2.21484 17.3078 2.81114 17.7011C4.2593 18.7126 5.53709 19.0779 7.41119 19.0779C10.2507 19.0779 11.8693 17.8697 11.8693 15.7344C11.8693 14.751 11.6137 13.9923 11.0174 13.4866C10.4779 13.0089 9.73961 12.728 8.66058 12.5875L6.105 12.2222C4.37289 11.9693 3.0383 11.4074 2.04446 10.4802C0.965441 9.49681 0.454323 8.09195 0.454323 6.32184C0.454323 2.55683 3.18028 0 7.66675 0C9.71121 0 10.9606 0.337165 12.7495 1.26437C13.5162 1.65773 14.0557 2.21967 14.0557 2.9221C14.0557 3.25927 13.9421 3.62452 13.6866 3.93359C13.3458 4.21456 13.0335 4.41124 12.6075 4.41124ZM30.9793 19.106C29.5312 20.9604 27.5719 21.8314 24.8743 21.8314H19.2804C18.7977 21.8314 18.2298 21.8314 17.7471 21.3538C17.2644 20.8761 17.2644 20.3142 17.2644 19.8084V2.16348C17.2644 1.68583 17.2644 1.09579 17.7471 0.618139C18.2298 0.140489 18.7977 0.140485 19.2804 0.140485H24.8743C27.5719 0.140485 29.5596 1.0396 31.0361 2.894C32.5411 4.8327 32.6263 7.10856 32.6263 10.9579C32.5979 14.8633 32.4843 17.1673 30.9793 19.106ZM28.1966 4.57983C27.2879 3.54023 26.0385 3.09068 24.4768 3.09068H20.5298V18.9093H24.4768C26.0385 18.9093 27.2879 18.4879 28.1966 17.4202C29.2756 16.212 29.3324 14.189 29.3324 10.986C29.3324 7.78289 29.2756 5.788 28.1966 4.57983ZM50.9981 20.3704C51.0265 20.9042 50.7425 21.3819 50.203 21.719C49.919 21.8876 49.6067 21.9438 49.3227 21.9438C48.4993 21.9438 48.1301 21.3538 47.7042 20.5951L42.3091 11.0702L38.6177 15.5096V19.696C38.6177 20.5109 38.5893 20.7637 38.3621 21.1852C38.1066 21.6347 37.6238 21.9438 36.9708 21.9438C36.3177 21.9438 35.8065 21.6347 35.5794 21.1852C35.3522 20.7637 35.3238 20.5109 35.3238 19.696V2.27586C35.3238 1.46105 35.3522 1.20818 35.5794 0.786723C35.8349 0.33717 36.3177 0.0280988 36.9708 0.0280988C37.6238 0.0280988 38.135 0.33717 38.3621 0.786723C38.5893 1.20818 38.6177 1.46105 38.6177 2.27586V10.986L46.7672 1.03959C47.3067 0.393362 47.6474 0.0561975 48.2721 0.0561975C48.6412 0.0561975 49.0104 0.196681 49.2943 0.449555C49.6635 0.758622 49.8906 1.20818 49.8906 1.62963C49.8906 2.07919 49.6919 2.41635 49.1524 3.03449L44.5523 8.5977L50.4585 19.0217C50.8561 19.696 50.9981 19.9489 50.9981 20.3704Z" fill="white"/>
<path d="M56.2034 21.8632C54.9887 21.8632 54 20.8781 54 19.7015C54 18.5249 54.9887 17.5672 56.2034 17.5672C57.4181 17.5672 58.4068 18.5249 58.4068 19.7015C58.4068 20.8781 57.4181 21.8632 56.2034 21.8632ZM67.6158 2.9005C67.3333 3.03732 66.9943 3.09204 66.5141 3.1194C65.3842 3.14676 64.9604 3.80349 64.9604 4.84329V6.75871H66.6271C67.1921 6.75871 67.4181 6.78607 67.7006 6.95025C68.0395 7.14179 68.2373 7.47015 68.2373 7.93532C68.2373 8.37314 68.0395 8.72886 67.7006 8.9204C67.4181 9.05722 67.1921 9.11195 66.6271 9.11195H64.9604V19.893C64.9604 20.6318 64.904 20.8781 64.7345 21.2338C64.5367 21.6443 64.0847 21.9453 63.435 21.9453C62.7853 21.9453 62.3333 21.6443 62.1356 21.2338C61.9661 20.8781 61.9096 20.6045 61.9096 19.893V9.11195H61.2034C60.6384 9.11195 60.4124 9.08458 60.1299 8.9204C59.791 8.72886 59.5932 8.4005 59.5932 7.93532C59.5932 7.49751 59.791 7.14179 60.1299 6.95025C60.4124 6.81343 60.6384 6.75871 61.2034 6.75871H61.9096V4.70647C61.9096 2.49005 63.1808 0.547264 66.0621 0.547264H66.3729C66.9943 0.547264 67.3898 0.629352 67.6723 0.793531C68.0395 0.985073 68.2938 1.3408 68.2938 1.83334C68.2373 2.32587 67.983 2.70896 67.6158 2.9005ZM72.0226 3.66667C71.0056 3.66667 70.1582 2.84577 70.1582 1.83334C70.1582 0.820899 70.9774 0 72.0226 0C73.0678 0 73.887 0.820899 73.887 1.83334C73.887 2.84577 73.0395 3.66667 72.0226 3.66667ZM72.0226 6.64926C72.6723 6.64926 73.1243 6.95025 73.322 7.3607C73.4915 7.71642 73.548 7.99006 73.548 8.7015V19.8383C73.548 20.5771 73.4915 20.8234 73.322 21.1791C73.1243 21.5896 72.6723 21.8905 72.0226 21.8905C71.3729 21.8905 70.9209 21.5896 70.7232 21.1791C70.5537 20.8234 70.4972 20.5498 70.4972 19.8383V8.7015C70.4972 7.96269 70.5537 7.71642 70.7232 7.3607C70.9209 6.95025 71.3729 6.64926 72.0226 6.64926ZM89.1977 21.1791C89 21.5896 88.548 21.8905 87.8983 21.8905C87.2486 21.8905 86.7966 21.5896 86.5989 21.1791C86.4294 20.8234 86.3729 20.5498 86.3729 19.8383V12.6144C86.3729 10.2612 85.0169 9.30348 83.2938 9.30348C81.5706 9.30348 80.1299 10.3159 80.1299 12.6144V19.8383C80.1299 20.5771 80.0734 20.8234 79.9039 21.1791C79.7062 21.5896 79.2542 21.8905 78.6045 21.8905C77.9548 21.8905 77.5028 21.5896 77.3051 21.1791C77.1356 20.8234 77.0791 20.5498 77.0791 19.8383V8.7015C77.0791 7.8806 77.1356 7.60697 77.3616 7.27861C77.6158 6.86816 78.1243 6.64926 78.6328 6.64926C79.1412 6.64926 79.5932 6.8408 79.8757 7.25124C80.0169 7.47015 80.1299 7.68906 80.1582 8.23632C81.2034 7.14179 82.6723 6.59453 84.1695 6.59453C85.7232 6.59453 87.0226 7.08707 87.9265 7.96269C89.113 9.08458 89.452 10.5075 89.452 12.204V19.8657C89.4237 20.5771 89.3955 20.8234 89.1977 21.1791ZM103.972 21.2065C103.746 21.6169 103.237 21.8905 102.672 21.8905C102.164 21.8905 101.797 21.699 101.571 21.4527C101.401 21.2338 101.26 21.0149 101.232 20.3582C100.017 21.5075 99 21.9179 97.1356 21.9179C95.2147 21.9179 93.9435 21.4801 93.0113 20.5498C92.2203 19.7562 91.7966 18.607 91.7966 17.3483C91.7966 14.8308 93.6328 12.9975 97.0791 12.9975H101.119V12.0672C101.119 10.097 100.158 9.1393 97.9266 9.1393C96.7119 9.1393 95.8927 9.46766 95.017 10.1517C94.6215 10.4527 94.1977 10.5622 93.9152 10.5622C93.6045 10.5622 93.2655 10.4254 93.0396 10.1517C92.7853 9.87811 92.6723 9.63185 92.6723 9.2214C92.6723 8.53732 93.322 7.93532 94.113 7.49751C95.1864 6.89552 96.4294 6.59453 98.0113 6.59453C102.107 6.59453 104.254 8.34577 104.254 11.7662V19.8657C104.198 20.5771 104.169 20.8507 103.972 21.2065ZM101.119 15.1592H97.5028C95.6949 15.1592 94.7627 15.9254 94.7627 17.3209C94.7627 18.6891 95.6949 19.4279 97.6441 19.4279C98.7458 19.4279 99.6497 19.3184 100.441 18.5796C100.921 18.1418 101.119 17.4577 101.119 16.3358V15.1592ZM119.791 21.1791C119.593 21.5896 119.141 21.8905 118.492 21.8905C117.842 21.8905 117.39 21.5896 117.192 21.1791C117.023 20.8234 116.966 20.5498 116.966 19.8383V12.6144C116.966 10.2612 115.61 9.30348 113.887 9.30348C112.164 9.30348 110.723 10.3159 110.723 12.6144V19.8383C110.723 20.5771 110.667 20.8234 110.497 21.1791C110.299 21.5896 109.847 21.8905 109.198 21.8905C108.548 21.8905 108.096 21.5896 107.898 21.1791C107.729 20.8234 107.672 20.5498 107.672 19.8383V8.7015C107.672 7.8806 107.729 7.60697 107.955 7.27861C108.209 6.86816 108.718 6.64926 109.226 6.64926C109.734 6.64926 110.186 6.8408 110.469 7.25124C110.61 7.47015 110.723 7.68906 110.751 8.23632C111.797 7.14179 113.266 6.59453 114.763 6.59453C116.316 6.59453 117.616 7.08707 118.52 7.96269C119.706 9.08458 120.045 10.5075 120.045 12.204V19.8657C120.017 20.5771 119.989 20.8234 119.791 21.1791ZM132.955 10.7264C132.559 10.7264 132.249 10.5622 131.74 10.1517C130.977 9.54975 130.356 9.33085 129.508 9.33085C128.294 9.33085 127.39 9.76866 126.712 10.6169C126.062 11.4652 125.78 12.5323 125.78 14.2836C125.78 16.0075 126.034 17.102 126.712 17.9503C127.362 18.8259 128.294 19.2637 129.508 19.2637C130.356 19.2637 130.977 19.0174 131.74 18.4154C132.249 18.005 132.559 17.8408 132.955 17.8408C133.322 17.8408 133.689 18.0323 133.915 18.2512C134.198 18.5249 134.339 18.8532 134.339 19.2363C134.339 20.0025 133.605 20.5498 132.842 21.0423C131.881 21.6443 130.893 22 129.508 22C126.034 22 122.729 19.9478 122.729 14.311C122.729 8.67414 126.034 6.62189 129.508 6.62189C130.893 6.62189 131.825 6.92289 132.842 7.57961C133.633 8.07214 134.339 8.61941 134.339 9.38558C134.339 9.76866 134.169 10.097 133.915 10.3706C133.689 10.5622 133.322 10.7264 132.955 10.7264ZM148.548 14.7488C148.153 15.1318 147.644 15.1318 147.192 15.1318H139.085C139.085 17.704 140.469 19.3731 143.011 19.3731C144.085 19.3731 145.13 19.0721 145.949 18.4154C146.429 18.0323 146.797 17.8682 147.192 17.8682C147.814 17.8682 148.463 18.4702 148.463 19.1542C148.463 19.8383 147.672 20.495 146.938 20.9876C145.977 21.6169 144.593 21.9453 142.955 21.9453C139.141 21.9453 136.062 19.9751 136.062 14.2562C136.062 9.30348 138.633 6.56716 142.531 6.56716C146.514 6.56716 148.915 9.41294 149 13.408C148.972 13.8458 148.915 14.393 148.548 14.7488ZM145.497 11C144.989 9.87811 143.944 9.11195 142.475 9.11195C141.006 9.11195 139.932 9.87811 139.424 11C139.113 11.6567 139.056 12.1219 139.028 13.0522H145.893C145.864 12.1219 145.808 11.6567 145.497 11Z" fill="white"/>
</svg>
