<svg xmlns="http://www.w3.org/2000/svg" xmlns:xlink="http://www.w3.org/1999/xlink" width="720" height="130"
     viewBox="0 0 720 130">
    <defs>
        <path id="wkhqa"
              d="M382.68 167.58H262.95L251.4 154.9h-23.97l51.89 55.83-51.89 55.68h23.97l50.8-55.76-22.7-24.92h40.84v96.6h22.77v-96.6h39.57z"/>
        <path id="wkhqb"
              d="M400.12 213.48l-3.95-19.86h-16.44v88.73h21.59v-44.88c0-14.56 12.5-27.41 31-22.62v-22.27c-13.89-2.22-26.9 7.37-32.2 20.9z"/>
        <path id="wkhqc"
              d="M461.59 156.62c-7.37 0-12.67 4.46-12.67 11.3 0 6.86 5.3 11.48 12.67 11.48 7.36 0 12.5-4.62 12.5-11.48 0-6.85-5.13-11.3-12.5-11.3z"/>
        <path id="wkhqd" d="M450.8 282.35v-88.73h21.59v88.73z"/>
        <path id="wkhqe"
              d="M535.4 229.08c-16.45-3.77-22.61-6.85-22.61-13.37 0-6.17 6.33-10.79 16.6-10.79 11.31 0 18.16 5.65 16.8 15.41h18.5c2.38-20.38-15.25-29.28-34.95-29.28-22.96 0-37.51 10.45-37.51 25.69 0 12.67 8.39 21.23 32.02 27.24 18.16 4.96 25.01 8.9 25.01 15.76 0 7.2-6.68 11.47-18.5 11.47-12.5 0-21.92-6.85-19.35-18.5h-19.7c-4.63 23.13 17.3 32.21 39.22 32.21 25.17 0 38.88-10.79 38.88-27.06.02-12.33-9.4-22.96-34.41-28.78z"/>
        <path id="wkhqf"
              d="M635.76 190.88a34.71 34.71 0 0 0-28.43 14.9V154.9h-21.59v127.44h16.45l3.07-13.7c6.52 10.1 17.82 16.44 28.95 16.44 23.3 0 39.4-18.67 39.4-47.1 0-26.9-15.41-47.11-37.85-47.11zm-6.51 78.1c-13.53 0-22.96-11.64-22.96-31 0-19.35 9.43-31 22.96-31 13.02 0 22.1 11.65 22.1 31s-9.08 31-22.1 31z"/>
        <path id="wkhqg"
              d="M728.23 190.88c-26.2 0-44.7 20.2-44.7 47.1 0 27.07 18.84 47.11 45.22 47.11 20.72 0 36.14-10.96 40.94-30.14H749.8c-2.39 9.08-9.42 15.76-20.38 15.76-13.36 0-23.64-9.77-25.35-27.58h65.95c4.29-29.8-12.84-52.25-41.8-52.25zm-23.46 37.34c2.74-14.74 11.82-22.96 24.15-22.96 13.02 0 21.42 9.08 21.76 22.96z"/>
        <path id="wkhqh"
              d="M827.04 190.88c-26.21 0-44.7 20.2-44.7 47.1 0 27.07 18.83 47.11 45.21 47.11 20.73 0 36.15-10.96 40.94-30.14h-19.87c-2.4 9.08-9.42 15.76-20.38 15.76-13.37 0-23.64-9.77-25.36-27.58h65.96c4.29-29.8-12.85-52.25-41.8-52.25zm-23.46 37.34c2.74-14.74 11.82-22.96 24.15-22.96 13.02 0 21.41 9.08 21.75 22.96z"/>
        <path id="wkhqi" d="M211.15 154.9h-23.98l43.33 46.6h-79.99v18.33h80.17l-43.51 46.59h23.98l51.9-55.68z"/>
    </defs>
    <g>
        <g transform="translate(-150 -155)">
            <use fill="#FFFFFF" xlink:href="#wkhqa"/>
        </g>
        <g transform="translate(-150 -155)">
            <use fill="#FFFFFF" xlink:href="#wkhqb"/>
        </g>
        <g transform="translate(-150 -155)">
            <use fill="#FFFFFF" xlink:href="#wkhqc"/>
        </g>
        <g transform="translate(-150 -155)">
            <use fill="#FFFFFF" xlink:href="#wkhqd"/>
        </g>
        <g transform="translate(-150 -155)">
            <use fill="#FFFFFF" xlink:href="#wkhqe"/>
        </g>
        <g transform="translate(-150 -155)">
            <use fill="#FFFFFF" xlink:href="#wkhqf"/>
        </g>
        <g transform="translate(-150 -155)">
            <use fill="#FFFFFF" xlink:href="#wkhqg"/>
        </g>
        <g transform="translate(-150 -155)">
            <use fill="#FFFFFF" xlink:href="#wkhqh"/>
        </g>
        <g transform="translate(-150 -155)">
            <use fill="#FFFFFF" xlink:href="#wkhqi"/>
        </g>
    </g>
</svg>
