<?xml version="1.0" encoding="UTF-8" standalone="no"?>
<svg
   xmlns:dc="http://purl.org/dc/elements/1.1/"
   xmlns:cc="http://creativecommons.org/ns#"
   xmlns:rdf="http://www.w3.org/1999/02/22-rdf-syntax-ns#"
   xmlns:svg="http://www.w3.org/2000/svg"
   xmlns="http://www.w3.org/2000/svg"
   viewBox="0 0 477.33334 208.60133"
   height="208.60133"
   width="477.33334"
   xml:space="preserve"
   id="svg2"
   version="1.1"><metadata
     id="metadata8"><rdf:RDF><cc:Work
         rdf:about=""><dc:format>image/svg+xml</dc:format><dc:type
           rdf:resource="http://purl.org/dc/dcmitype/StillImage" /></cc:Work></rdf:RDF></metadata><defs
     id="defs6"><clipPath
       id="clipPath18"
       clipPathUnits="userSpaceOnUse"><path
         id="path16"
         d="M 0,156.451 H 358 V 0 H 0 Z" /></clipPath><clipPath
       id="clipPath60"
       clipPathUnits="userSpaceOnUse"><path
         id="path58"
         d="m 114.736,109.424 c 0,-11.778 9.521,-21.223 21.157,-21.223 v 0 21.223 z" /></clipPath><linearGradient
       id="linearGradient74"
       spreadMethod="pad"
       gradientTransform="matrix(21.156944,-21.223478,21.156944,21.223478,117.83327,112.53136)"
       gradientUnits="userSpaceOnUse"
       y2="0"
       x2="1"
       y1="0"
       x1="0"><stop
         id="stop70"
         offset="0"
         style="stop-opacity:0;stop-color:#ffffff" /><stop
         id="stop72"
         offset="1"
         style="stop-opacity:1;stop-color:#ffffff" /></linearGradient><mask
       id="mask76"
       height="1"
       width="1"
       y="0"
       x="0"
       maskUnits="userSpaceOnUse"><g
         id="g86"><g
           id="g84"><g
             id="g82"><g
               id="g80"><path
                 id="path78"
                 style="fill:url(#linearGradient74);stroke:none"
                 d="M -32768,32767 H 32767 V -32768 H -32768 Z" /></g></g></g></g></mask><linearGradient
       id="linearGradient96"
       spreadMethod="pad"
       gradientTransform="matrix(21.156944,-21.223478,21.156944,21.223478,117.83327,112.53136)"
       gradientUnits="userSpaceOnUse"
       y2="0"
       x2="1"
       y1="0"
       x1="0"><stop
         id="stop92"
         offset="0"
         style="stop-opacity:1;stop-color:#82bc00" /><stop
         id="stop94"
         offset="1"
         style="stop-opacity:1;stop-color:#82bc00" /></linearGradient></defs><g
     transform="matrix(1.3333333,0,0,-1.3333333,0,208.60133)"
     id="g10"><g
       id="g12"><g
         clip-path="url(#clipPath18)"
         id="g14"><g
           transform="translate(164.8777,73.132)"
           id="g20"><path
             id="path22"
             style="fill:#4f008c;fill-opacity:1;fill-rule:nonzero;stroke:none"
             d="m 0,0 v 10.4 h 5.183 v 5.305 H 0 v 6.474 h -6.559 v -6.474 h -3.596 V 10.4 h 3.596 V -0.849 c 0,-5.306 3.068,-7.64 7.828,-7.64 1.799,0 3.386,0.318 4.232,0.742 V -1.91 C 4.76,-2.441 3.597,-2.759 2.645,-2.759 1.058,-2.653 0,-1.804 0,0" /></g><g
           transform="translate(185.7173,65.1732)"
           id="g24"><path
             id="path26"
             style="fill:#4f008c;fill-opacity:1;fill-rule:nonzero;stroke:none"
             d="M 0,0 3.914,14.538 7.828,0 h 6.03 l 7.193,23.664 H 14.704 L 10.473,8.596 6.453,23.664 H 1.481 L -2.433,8.596 -6.664,23.664 h -6.559 L -6.03,0 Z" /></g><path
           id="path28"
           style="fill:#4f008c;fill-opacity:1;fill-rule:nonzero;stroke:none"
           d="m 210.259,88.837 h 6.559 v -23.77 h -6.559 z" /><g
           transform="translate(234.9072,79.1807)"
           id="g30"><path
             id="path32"
             style="fill:#4f008c;fill-opacity:1;fill-rule:nonzero;stroke:none"
             d="m 0,0 -4.866,1.167 c -1.481,0.425 -2.116,0.955 -2.116,1.91 0,1.486 1.587,2.229 3.174,2.229 2.221,0 3.279,-1.061 3.702,-2.335 h 6.242 c -0.847,4.457 -4.126,7.322 -10.05,7.322 -5.289,0 -9.415,-3.077 -9.415,-7.746 0,-4.033 2.539,-5.837 6.136,-6.686 L -2.433,-5.2 C -0.74,-5.624 0,-6.155 0,-7.216 c 0,-1.592 -1.375,-2.335 -3.385,-2.335 -2.01,0 -3.491,0.955 -4.02,2.653 h -6.559 c 0.741,-4.881 4.761,-7.64 10.579,-7.64 5.501,0 9.732,2.865 9.732,7.746 C 6.347,-3.29 4.126,-0.955 0,0" /></g><g
           transform="translate(253.6311,73.132)"
           id="g34"><path
             id="path36"
             style="fill:#4f008c;fill-opacity:1;fill-rule:nonzero;stroke:none"
             d="m 0,0 v 10.4 h 5.183 v 5.305 H 0 v 6.474 h -6.559 v -6.474 h -3.596 V 10.4 h 3.596 V -0.849 c 0,-5.306 3.068,-7.64 7.828,-7.64 1.799,0 3.386,0.318 4.232,0.742 V -1.91 C 4.76,-2.441 3.597,-2.759 2.645,-2.759 0.952,-2.653 0,-1.804 0,0" /></g><g
           transform="translate(273.2013,71.0096)"
           id="g38"><path
             id="path40"
             style="fill:#4f008c;fill-opacity:1;fill-rule:nonzero;stroke:none"
             d="m 0,0 c -3.279,0 -6.03,2.759 -6.03,6.049 0,3.289 2.751,6.048 6.03,6.048 3.279,0 6.03,-2.759 6.03,-6.048 C 6.03,2.759 3.279,0 0,0 m 0,18.358 c -6.876,0 -12.377,-5.518 -12.377,-12.415 0,-6.898 5.501,-12.416 12.377,-12.416 6.876,0 12.377,5.518 12.377,12.416 0,6.897 -5.501,12.415 -12.377,12.415" /></g><g
           transform="translate(213.5387,98.6001)"
           id="g42"><path
             id="path44"
             style="fill:#4f008c;fill-opacity:1;fill-rule:nonzero;stroke:none"
             d="m 0,0 c 1.811,0 3.279,-1.473 3.279,-3.29 0,-1.816 -1.468,-3.289 -3.279,-3.289 -1.811,0 -3.279,1.473 -3.279,3.289 C -3.279,-1.473 -1.811,0 0,0" /></g><g
           transform="translate(93.5788,88.2006)"
           id="g46"><path
             id="path48"
             style="fill:#4f008c;fill-opacity:1;fill-rule:nonzero;stroke:none"
             d="m 0,0 v -42.447 h 21.157 v 63.67 H -21.157 V 0 Z" /></g><g
           transform="translate(114.7358,109.4241)"
           id="g50"><path
             id="path52"
             style="fill:#009d4e;fill-opacity:1;fill-rule:nonzero;stroke:none"
             d="M 0,0 C 0,-11.779 9.521,-21.223 21.157,-21.223 V 0 Z" /></g></g></g><g
       id="g54"><g
         clip-path="url(#clipPath60)"
         id="g56"><g
           id="g62"><g
             id="g64" /><g
             mask="url(#mask76)"
             id="g88"><g
               id="g90"><path
                 id="path98"
                 style="fill:url(#linearGradient96);stroke:none"
                 d="m 114.736,109.424 c 0,-11.778 9.521,-21.223 21.157,-21.223 v 0 21.223 z" /></g></g></g></g></g></g></svg>