<?xml version="1.0" encoding="UTF-8" standalone="no"?>
<svg
   xmlns:dc="http://purl.org/dc/elements/1.1/"
   xmlns:cc="http://creativecommons.org/ns#"
   xmlns:rdf="http://www.w3.org/1999/02/22-rdf-syntax-ns#"
   xmlns:svg="http://www.w3.org/2000/svg"
   xmlns="http://www.w3.org/2000/svg"
   xmlns:sodipodi="http://sodipodi.sourceforge.net/DTD/sodipodi-0.dtd"
   xmlns:inkscape="http://www.inkscape.org/namespaces/inkscape"
   version="1.1"
   id="svg2"
   xml:space="preserve"
   width="194.30667"
   height="108.76"
   viewBox="0 0 194.30667 108.76"
   sodipodi:docname="logo_cs.svg"
   inkscape:version="1.0.1 (3bc2e813f5, 2020-09-07)"><metadata
     id="metadata8"><rdf:RDF><cc:Work
         rdf:about=""><dc:format>image/svg+xml</dc:format><dc:type
           rdf:resource="http://purl.org/dc/dcmitype/StillImage" /><dc:title></dc:title></cc:Work></rdf:RDF></metadata><defs
     id="defs6" /><sodipodi:namedview
     pagecolor="#ffffff"
     bordercolor="#666666"
     borderopacity="1"
     objecttolerance="10"
     gridtolerance="10"
     guidetolerance="10"
     inkscape:pageopacity="0"
     inkscape:pageshadow="2"
     inkscape:window-width="2560"
     inkscape:window-height="1385"
     id="namedview4"
     showgrid="false"
     inkscape:zoom="6.8191174"
     inkscape:cx="97.153336"
     inkscape:cy="54.380001"
     inkscape:window-x="0"
     inkscape:window-y="0"
     inkscape:window-maximized="1"
     inkscape:current-layer="g10" /><g
     id="g10"
     inkscape:groupmode="layer"
     inkscape:label="ink_ext_XXXXXX"
     transform="matrix(1.3333333,0,0,-1.3333333,0,108.76)"><g
       id="g12"
       transform="scale(0.1)"><path
         d="M 530.352,621.793 H 385.25 v -79.66 h 141.82 c -0.703,8.687 -1.078,17.574 -1.078,26.672 0,18.531 1.496,36.207 4.36,52.988"
         style="fill:#f47216;fill-opacity:1;fill-rule:nonzero;stroke:none"
         id="path14" /><path
         d="m 154.082,621.793 v -79.66 h 130 v 79.66 h -130"
         style="fill:#f47216;fill-opacity:1;fill-rule:nonzero;stroke:none"
         id="path16" /><path
         d="m 1002.39,621.793 c 2.87,-16.781 4.36,-34.457 4.36,-52.988 0,-9.071 -0.4,-17.961 -1.2,-26.672 h 145.49 v 79.66 h -148.65"
         style="fill:#f47216;fill-opacity:1;fill-rule:nonzero;stroke:none"
         id="path18" /><path
         d="m 1381.46,542.133 v 79.66 h -129.24 v -79.66 h 129.24"
         style="fill:#f47216;fill-opacity:1;fill-rule:nonzero;stroke:none"
         id="path20" /><path
         d="m 766.363,406.109 c -80.933,0 -131.109,61.524 -131.109,162.696 0,101.172 50.176,162.683 131.109,162.683 80.938,0 131.121,-61.511 131.121,-162.683 0,-101.172 -50.996,-162.696 -131.121,-162.696 z M 1002.39,621.793 C 981.918,742.09 890.668,815.66 766.363,815.66 c -124.293,0 -215.535,-73.57 -236.011,-193.867 -2.864,-16.781 -4.36,-34.457 -4.36,-52.988 0,-9.098 0.375,-17.985 1.078,-26.672 10.965,-135.82 106.176,-220.184 239.293,-220.184 127.52,0 227.274,88.965 239.187,220.184 0.8,8.711 1.2,17.601 1.2,26.672 0,18.531 -1.49,36.207 -4.36,52.988"
         style="fill:#231f20;fill-opacity:1;fill-rule:nonzero;stroke:none"
         id="path22" /><path
         d="m 378.777,806.762 h -88.214 c -4.043,0 -6.481,-2.43 -6.481,-6.485 v -178.484 -79.66 -28.367 c 0,-63.125 -36.422,-98.731 -91.449,-98.731 -55.043,0 -91.461,35.606 -91.461,98.731 v 286.511 c 0,4.055 -2.4337,6.485 -6.4689,6.485 H 6.48047 C 2.42969,806.762 0,804.332 0,800.277 V 510.531 C 0,405.297 47.75,322.758 188.578,322.758 c 140.832,0 196.672,85.793 196.672,199.914 v 19.461 79.66 178.484 c 0,4.055 -2.406,6.485 -6.473,6.485"
         style="fill:#231f20;fill-opacity:1;fill-rule:nonzero;stroke:none"
         id="path24" /><path
         d="m 1422.18,419.879 h -169.96 v 380.398 c 0,4.055 -2.43,6.485 -6.47,6.485 h -88.24 c -4.04,0 -6.47,-2.43 -6.47,-6.485 V 621.793 542.133 337.32 c 0,-4.054 2.43,-6.465 6.47,-6.465 h 264.67 c 4.05,0 6.48,2.411 6.48,6.465 v 76.082 c 0,4.036 -2.43,6.477 -6.48,6.477"
         style="fill:#231f20;fill-opacity:1;fill-rule:nonzero;stroke:none"
         id="path26" /><path
         d="m 1312.33,753.344 c 0,29.543 23.57,53.41 53.12,53.41 29.55,0 53.42,-23.867 53.42,-53.41 0,-29.551 -23.87,-53.133 -53.42,-53.133 -29.55,0 -53.12,23.582 -53.12,53.133 m 94.31,0 c 0,24.472 -18.8,42.383 -41.19,42.383 -22.38,0 -40.87,-17.911 -40.87,-42.383 0,-24.481 18.49,-42.098 40.87,-42.098 22.39,0 41.19,17.617 41.19,42.098 m -63.28,-25.965 v 53.719 c 0,0.597 0.61,1.191 1.2,1.191 h 26.27 c 11.04,0 20.29,-6.562 20.29,-17.324 0,-6.551 -4.48,-12.527 -9.85,-14.317 -0.89,-0.3 -1.19,-0.585 -0.89,-1.492 l 10.15,-21.777 c 0.3,-0.598 0,-1.203 -0.9,-1.203 h -11.94 c -0.89,0 -1.5,0.605 -1.79,1.203 l -7.76,19.695 h -11.34 v -19.695 c 0,-0.598 -0.59,-1.203 -1.21,-1.203 h -11.03 c -0.59,0 -1.2,0.605 -1.2,1.203 m 24.78,29.246 c 3.88,0 8.95,2.375 8.95,8.34 0,4.199 -3.88,7.48 -9.24,7.48 h -11.05 v -15.82 h 11.34"
         style="fill:#231f20;fill-opacity:1;fill-rule:nonzero;stroke:none"
         id="path28" /><path
         d="m 0,195.102 c 0,0.656 0.660156,1.308 1.32031,1.308 H 17.4609 c 0.9922,0 1.3204,-0.652 1.3204,-1.308 V 70.5352 c 0,-33.2774 13.5078,-53.7305 49.7578,-53.7305 36.2499,0 49.7619,21.0937 49.7619,53.7305 V 195.102 c 0,0.656 0.66,1.308 1.316,1.308 h 16.153 c 0.988,0 1.32,-0.652 1.32,-1.308 V 66.5703 C 137.09,26.0469 110.398,0.0117188 68.207,0.0117188 26.0313,0.0117188 0,23.7383 0,65.9297 Z m 50.0898,17.461 -6.5898,5.605 c -0.9883,0.988 -0.332,1.973 0.9805,2.629 l 45.4804,26.375 c 1.6485,0.976 2.6368,0.976 4.2852,0 l 13.1879,-8.582 c 1.648,-0.988 0.324,-2.297 -1.325,-3.281 L 53.7109,211.246 c -1.3086,-0.656 -1.9726,-0.332 -3.6211,1.317"
         style="fill:#231f20;fill-opacity:1;fill-rule:nonzero;stroke:none"
         id="path30" /><path
         d="m 277.426,199.059 c 22.41,0 39.211,-6.594 53.058,-16.813 0.649,-0.644 0.649,-1.328 0.332,-1.973 l -7.578,-13.183 c -0.332,-0.664 -0.992,-0.664 -1.652,-0.332 -12.191,8.574 -28.012,14.844 -44.16,14.844 -41.192,0 -70.524,-26.7 -70.524,-82.059 0,-55.0391 30.325,-82.0547 70.524,-82.0547 19.117,0 31.969,5.918 44.16,12.5 0.988,0.664 1.652,0.332 1.977,-0.3086 l 6.593,-11.543 c 0.328,-0.6484 0.328,-1.6445 -0.332,-1.9765 C 318.297,7.25781 295.883,0.0117188 276.762,0.0117188 c -51.078,0 -89.629,34.9374812 -89.629,99.5312812 0,64.578 38.551,99.516 90.293,99.516 m -16.813,13.171 -30.308,32.305 c -0.66,0.645 -0.989,0.977 0.32,1.32 l 10.551,2.293 c 0.988,0.344 1.976,0.344 3.289,-0.652 l 27.027,-23.391 c 1.977,-1.648 3.953,-1.648 5.934,0 l 27.679,23.391 c 1.321,0.996 2.313,0.996 3.297,0.652 l 10.543,-2.968 c 1.321,0 0.993,-0.645 0.332,-1.309 L 287.645,212.23 c -1.649,-1.64 -2.973,-1.972 -4.95,-1.972 h -17.136 c -2.301,0 -3.293,0.332 -4.946,1.972"
         style="fill:#231f20;fill-opacity:1;fill-rule:nonzero;stroke:none"
         id="path32" /><path
         d="m 369.32,195.102 c 0,0.656 0.66,1.308 1.321,1.308 h 98.531 c 0.656,0 1.316,-0.652 1.316,-1.308 v -14.497 c 0,-0.664 -0.66,-1.328 -1.316,-1.328 h -81.063 v -66.23 h 76.77 c 0.672,0 1.32,-0.664 1.32,-1.328 V 97.2188 c 0,-0.6485 -0.648,-1.3125 -1.32,-1.3125 h -76.77 V 19.7734 h 82.051 c 0.66,0 1.309,-0.6406 1.309,-1.3046 V 3.95313 c 0,-0.64454 -0.649,-1.3086 -1.309,-1.3086 h -99.519 c -0.661,0 -1.321,0.66406 -1.321,1.3086 V 195.102"
         style="fill:#231f20;fill-opacity:1;fill-rule:nonzero;stroke:none"
         id="path34" /><path
         d="m 540.969,179.277 h -45.461 c -0.668,0 -1.336,0.664 -1.336,1.328 v 14.497 c 0,0.988 0.668,1.308 1.336,1.308 H 605.23 c 0.668,0 1.329,-0.32 1.329,-1.308 v -14.497 c 0,-0.664 -0.661,-1.328 -1.329,-1.328 H 559.77 V 3.95313 c 0,-0.64454 -0.34,-1.3086 -1.34,-1.3086 h -16.141 c -0.648,0 -1.32,0.66406 -1.32,1.3086 V 179.277"
         style="fill:#231f20;fill-opacity:1;fill-rule:nonzero;stroke:none"
         id="path36" /><path
         d="m 646.391,195.102 c 0,0.656 0.672,1.308 1.32,1.308 h 30.648 c 2.309,0 3.621,0 5.262,-2.957 L 765.688,21.7656 c 1.652,-3.6289 5.937,-2.6328 5.937,0.3125 V 195.102 c 0,0.656 0.656,1.308 1.309,1.308 h 16.152 c 0.996,0 1.309,-0.652 1.309,-1.308 L 789.742,3.95313 c 0,-0.64454 -0.324,-1.3086 -1.32,-1.3086 h -30.645 c -2.304,0 -3.632,0 -5.273,2.96875 L 670.438,177.305 c -1.637,3.3 -5.918,2.636 -5.918,-0.332 V 3.95313 c 0,-0.64454 -0.34,-1.3086 -1.317,-1.3086 h -16.14 c -0.672,0 -1.321,0.66406 -1.321,1.3086 l 0.649,191.14887"
         style="fill:#231f20;fill-opacity:1;fill-rule:nonzero;stroke:none"
         id="path38" /><path
         d="m 860.531,195.102 c 0,0.656 0.676,1.308 1.328,1.308 h 16.133 c 0.996,0 1.328,-0.652 1.328,-1.308 V 3.95313 c 0,-0.64454 -0.332,-1.3086 -1.328,-1.3086 h -16.133 c -0.652,0 -1.328,0.66406 -1.328,1.3086 V 195.102"
         style="fill:#231f20;fill-opacity:1;fill-rule:nonzero;stroke:none"
         id="path40" /><path
         d="m 1030.57,199.059 c 22.41,0 39.21,-6.594 53.07,-16.813 0.64,-0.644 0.64,-1.328 0.32,-1.973 l -7.59,-13.183 c -0.33,-0.664 -0.99,-0.664 -1.64,-0.332 -12.21,8.574 -28.03,14.844 -44.16,14.844 -41.199,0 -70.527,-26.7 -70.527,-82.059 0,-55.0391 30.312,-82.0547 70.527,-82.0547 19.11,0 31.95,5.918 44.16,12.5 1,0.664 1.64,0.332 1.97,-0.3086 l 6.59,-11.543 c 0.35,-0.6484 0.35,-1.6445 -0.34,-1.9765 -11.52,-8.90239 -33.93,-16.1484812 -53.04,-16.1484812 -51.078,0 -89.64,34.9374812 -89.64,99.5312812 0,64.578 38.562,99.516 90.3,99.516"
         style="fill:#231f20;fill-opacity:1;fill-rule:nonzero;stroke:none"
         id="path42" /><path
         d="m 1140.26,179.277 h -45.47 c -0.66,0 -1.34,0.664 -1.34,1.328 v 14.497 c 0,0.988 0.68,1.308 1.34,1.308 h 109.73 c 0.66,0 1.32,-0.32 1.32,-1.308 v -14.497 c 0,-0.664 -0.66,-1.328 -1.32,-1.328 h -45.47 V 3.95313 c 0,-0.64454 -0.33,-1.3086 -1.34,-1.3086 h -16.14 c -0.65,0 -1.31,0.66406 -1.31,1.3086 V 179.277"
         style="fill:#231f20;fill-opacity:1;fill-rule:nonzero;stroke:none"
         id="path44" /><path
         d="m 1218.33,195.102 c -0.34,0.656 0,1.308 0.99,1.308 h 18.46 c 0.63,0 0.97,-0.32 1.31,-1.308 l 47.46,-175.6606 c 0.97,-3.2812 5.25,-3.2812 6.25,0 l 50.74,175.6606 c 0.35,0.988 0.67,1.308 1.33,1.308 h 18.45 c 1,0 1.32,-0.652 1,-1.308 L 1305.65,2.64453 c -0.66,-2.30078 -2.65,-2.6328112 -4.94,-2.6328112 h -22.4 c -2.31,0 -4.3,0.3320312 -4.96,2.6328112 L 1218.33,195.102"
         style="fill:#231f20;fill-opacity:1;fill-rule:nonzero;stroke:none"
         id="path46" /><path
         d="m 1399.2,212.563 -6.6,5.605 c -0.97,0.988 -0.32,1.973 1,2.629 l 45.47,26.367 c 1.66,0.996 2.63,0.996 4.29,0 l 13.19,-8.566 c 1.64,-0.996 0.33,-2.305 -1.31,-3.301 l -52.42,-24.051 c -1.31,-0.656 -1.98,-0.332 -3.62,1.317 m 10.54,-17.461 c 0,0.656 0.68,1.308 1.33,1.308 h 16.12 c 1.01,0 1.34,-0.652 1.34,-1.308 V 3.97266 c 0,-0.66407 -0.33,-1.32813 -1.34,-1.32813 h -16.12 c -0.65,0 -1.33,0.66406 -1.33,1.32813 V 195.102"
         style="fill:#231f20;fill-opacity:1;fill-rule:nonzero;stroke:none"
         id="path48" /></g></g></svg>
