<?xml version="1.0" encoding="UTF-8"?>
<svg width="227px" height="39px" viewBox="0 0 227 39" version="1.1" xmlns="http://www.w3.org/2000/svg"
    xmlns:xlink="http://www.w3.org/1999/xlink">
    <!-- Generator: Sketch 63.1 (92452) - https://sketch.com -->
    <title>Group</title>
    <desc>Created with Sketch.</desc>
    <g id="Design" stroke="none" stroke-width="1" fill="none" fill-rule="evenodd">
        <g id="HP_lista-KB" transform="translate(-40.000000, -20.000000)">
            <g id="Group" transform="translate(40.000000, 20.000000)">
                <path
                    d="M10.6751472,30 C17.2751992,30 18.1074882,25.0533692 18.1074882,21.1424213 C18.1074882,17.2314733 18.0502684,15.9372631 18.0502684,13.2628418 C18.0502684,10.5884204 18.5668077,9.95547398 20.5752252,9.95547398 L20.5752252,8.69010559 L12.9993143,8.69010559 L12.9993143,9.95547398 C15.6397513,9.95547398 16.61509,10.3005268 16.61509,13.8669463 C16.61509,15.5062093 16.67283,16.2823159 16.67283,21.2289467 C16.67283,26.175053 15.0946019,28.5621052 11.2775164,28.5621052 C7.46095098,28.5621052 6.14125269,25.5137892 6.14125269,22.0627369 L6.14125269,10.099683 L8.83838933,9.95547398 L8.83838933,8.69010559 L-1.59872116e-14,8.69010559 L-1.59872116e-14,9.95547398 L2.52547703,10.0708412 C3.2141962,10.099683 3.30002601,10.646104 3.30002601,11.1059996 L3.30002601,22.7816843 C3.30002601,27.6417896 5.82550304,30 10.6751472,30 L10.6751472,30 Z M30.5065141,18.8995781 L27.5794576,18.8995781 L27.5794576,9.89831478 C27.5794576,9.89831478 29.2440357,9.86947298 30.7073038,9.86947298 C32.8884213,9.86947298 35.2703284,10.3293686 35.2703284,14.4416847 C35.2703284,18.5545253 33.2041709,18.8995781 30.5065141,18.8995781 L30.5065141,18.8995781 Z M31.2238432,29.453579 L31.2238432,28.1882106 L28.5839264,28.0733678 C27.9529473,28.044526 27.5794576,27.8431578 27.5794576,27.0953686 L27.5794576,20.1072629 L30.8222637,20.1072629 C34.8973589,20.1072629 38.3695647,18.5256835 38.3695647,14.3268419 C38.3695647,10.4447358 34.9259688,8.69010559 30.8222637,8.69010559 L21.2951552,8.69010559 L21.2951552,9.95547398 L23.9642021,10.0708412 C24.6524011,10.099683 24.7387511,10.646104 24.7387511,11.1059996 L24.7387511,28.044526 L22.1560542,28.1882106 L22.1560542,29.453579 L31.2238432,29.453579 Z M44.6221361,29.9423164 L54.637174,12.2848426 C55.5266829,10.7032632 56.5025418,10.185684 58.2243397,9.84063118 L58.3965195,8.69010559 L50.8778285,8.69010559 L50.6770388,9.84063118 C53.1161658,9.84063118 53.5468754,10.2433676 53.5468754,11.0194742 C53.5468754,11.4222106 53.3169555,12.0839988 53.1447757,12.4002098 L45.7415648,25.4849474 L43.7326271,11.3650514 C43.7040172,11.1348414 43.6754073,10.8186304 43.6754073,10.6744214 C43.6754073,10.2145258 43.876197,9.95547398 44.4499563,9.92715658 L45.8846145,9.84063118 L45.8846145,8.69010559 L38.1656539,8.69010559 L38.1656539,9.84063118 L39.3995224,9.92715658 C40.2318114,9.98431578 40.576171,10.1280004 40.8055707,11.1348414 L43.5604474,29.9423164 L44.6221361,29.9423164 Z M71.5591705,29.453579 L73.7111579,22.6379997 L72.8788688,22.2641051 C70.1531223,28.3318952 67.3118956,28.3895788 62.6058213,28.3895788 C61.974322,28.3895788 61.2569929,28.2170524 61.2569929,27.5557886 C61.2569929,27.4692632 61.2856028,27.267895 61.2856028,27.267895 L63.2373206,19.3306319 L63.6389001,19.3306319 C65.9921973,19.3594737 66.967536,19.9058947 66.967536,22.0627369 C66.967536,22.6091579 66.9103161,23.2704217 66.7953562,24.0182109 L67.799825,24.0182109 L70.1239922,14.4993683 L69.1486534,14.4993683 C67.8570449,17.6913689 66.8530963,18.2094725 63.6961199,18.2094725 L63.4953302,18.2094725 L65.5328778,9.89831478 C66.3937767,9.86947298 67.713475,9.78294758 68.5171541,9.78294758 C71.6736103,9.78294758 73.1087887,10.415894 73.567588,14.7295783 L73.653938,15.6787357 L74.4570969,15.7358949 L74.9164164,8.69010559 L59.1336155,8.69010559 L58.8750857,9.84063118 L61.6299624,9.95547398 C62.2042418,9.98431578 62.4622514,10.3870522 62.4622514,10.8186304 C62.4622514,10.9046314 62.4336415,11.048316 62.4336415,11.048316 L58.1863665,28.1593688 L55.7472395,28.3030534 L55.43201,29.453579 L71.5591705,29.453579 Z M81.7687561,29.9134746 C86.1882108,29.9134746 89.2874471,27.0665268 89.2874471,23.0978953 C89.2874471,19.1292637 86.2454307,17.9215789 83.0889745,16.8575787 C80.4490578,15.9661049 79.3010191,15.1606321 79.3010191,13.147999 C79.3010191,11.0194742 81.3385667,9.32305199 83.7776937,9.32305199 C87.2212896,9.32305199 88.5123779,12.2848426 88.8853475,16.0526303 L89.8039865,16.2251567 L90.2919159,8.89147379 L89.431017,8.89147379 L88.0821885,10.1280004 C86.7047502,8.94915739 85.6716714,8.316211 83.6913437,8.316211 C79.5018088,8.316211 77.1199016,11.5375778 77.1199016,14.9881057 C77.1199016,18.2094725 79.329629,19.3306319 82.1131156,20.3086311 C85.6144516,21.5451577 86.9055399,22.3789479 86.9055399,24.6223154 C86.9055399,26.8940004 85.2987019,28.7923152 82.1994656,28.7923152 C78.46873,28.7923152 76.4025725,26.635473 76.4025725,21.6600005 L75.5130636,21.4874741 L74.1356253,29.453579 L75.0251342,29.453579 L76.6038824,27.7854742 C77.4642612,28.676948 79.3873691,29.9134746 81.7687561,29.9134746 L81.7687561,29.9134746 Z M102.424089,29.453579 L102.596269,28.3030534 L99.6406025,28.1882106 C99.1240631,28.1593688 98.7797035,27.9008414 98.7797035,27.3832622 C98.7797035,27.267895 98.8083134,27.0665268 98.8083134,27.0665268 L102.883409,10.8186304 C103.141418,9.78294758 103.514388,9.66810478 104.203107,9.66810478 C106.957984,9.66810478 107.933842,10.8757896 107.933842,16.1963149 L108.851961,16.2823159 L110,8 L109.254061,8 C109.139101,8.4027364 108.909701,8.69010559 108.478992,8.69010559 L95.2502778,8.69010559 C94.991748,8.69010559 94.7623484,8.43157819 94.7623484,8 L94.0450193,8 L91.3473624,16.0237885 L92.2654813,16.3976831 C94.3607689,11.8537888 96.1683967,9.66810478 98.9232734,9.66810478 C99.4970326,9.66810478 99.9849621,9.72578838 99.9849621,10.3582104 C99.9849621,10.4735776 99.9277422,10.8186304 99.9277422,10.8186304 L95.6232473,28.1593688 L92.8683707,28.3030534 L92.638971,29.453579 L102.424089,29.453579 Z"
                    id="upvest" fill="#1A1919"></path>
                <g id="KB" transform="translate(159.000000, 0.000000)">
                    <path
                        d="M36.976124,25.8915101 L44.4090543,21.6307969 C45.067907,21.2467969 44.6928372,20.8508899 44.2423566,20.8508899 L44.2423566,20.6832 L49.5469147,20.6832 L49.5469147,20.8508899 C48.6866357,20.9501147 47.7618605,21.4383008 47.0633178,21.8401612 L40.3755659,25.6116961 L48.1637209,31.5840372 C48.752124,32.0146729 49.2631318,32.4572155 49.9269457,32.5286574 L49.9269457,32.6983318 L44.6015504,32.6973395 L36.976124,26.6247814 L36.976124,31.3022388 C36.976124,32.0851225 37.4196589,32.5286574 38.2025426,32.5286574 L38.2025426,32.6983318 L32.4564341,32.6973395 L32.4564341,32.5286574 C33.2393178,32.5286574 33.6828527,32.0851225 33.6828527,31.3022388 L33.6828527,22.0773085 C33.6828527,21.2944248 33.2393178,20.8508899 32.4564341,20.8508899 L32.4564341,20.6832 L38.2025426,20.6832 L38.2025426,20.8508899 C37.4196589,20.8508899 36.976124,21.2944248 36.976124,22.0773085 L36.976124,25.8915101 Z"
                        id="Fill-1" fill="#000000"></path>
                    <path
                        d="M59.968893,31.3314109 C61.6636527,31.3314109 63.7582884,31.0664806 63.7582884,29.2357829 C63.7582884,26.7184496 59.444986,26.9833798 56.2082729,27.175876 L56.2082729,30.383814 C56.2082729,30.8233798 56.7599628,31.2698915 57.4029395,31.2956899 C58.1600248,31.3274419 59.968893,31.3314109 59.968893,31.3314109 M63.076614,23.839938 C63.076614,22.1888372 61.1357767,21.9735194 59.1483039,21.9884031 C58.2741333,21.9953488 57.284862,22.020155 56.2082729,22.1461705 L56.2082729,25.6904806 C56.2082729,25.6904806 57.3850791,25.7430698 58.1709395,25.7430698 C62.1260403,25.7133023 63.076614,25.2112248 63.076614,23.839938 M67.3720558,29.2705116 C67.3720558,31.3453023 65.4222884,32.6709457 60.736893,32.6977364 L51.6885829,32.6967442 L51.6885829,32.5290543 C52.4724589,32.5290543 52.9150016,32.0855194 52.9150016,31.3026357 L52.9150016,22.0767132 C52.9150016,21.2938295 52.4724589,20.8502946 51.6885829,20.8502946 L51.6885829,20.6835969 L61.2786605,20.6835969 C65.2416992,20.6835969 66.6397767,21.9655814 66.6397767,23.455938 C66.6397767,25.4682171 64.4955287,26.151876 62.5070636,26.3374264 C64.6016992,26.3374264 67.3720558,27.0230698 67.3720558,29.2705116"
                        id="Fill-3" fill="#000000"></path>
                    <polygon id="Fill-5" fill="#CC0033"
                        points="0 26.8634171 24.0540775 26.8634171 24.0540775 14.6428899 0 14.6428899"></polygon>
                    <polygon id="Fill-7" fill="#000000"
                        points="0 38.6969674 24.0540775 38.6969674 24.0540775 26.6689364 0 26.6689364"></polygon>
                    <polygon id="Fill-8" fill="#FFFFFF"
                        points="5.15572093 27.8189519 18.8973643 27.8189519 18.8973643 26.6689364 5.15572093 26.6689364">
                    </polygon>
                    <polygon id="Fill-9" fill="#000000"
                        points="0.282889922 1.45791008 0.921897674 1.45791008 2.7267969 5.83074729 4.53963411 1.45791008 5.15582016 1.45791008 2.97386667 6.57096434 2.46583566 6.57096434">
                    </polygon>
                    <polygon id="Fill-10" fill="#000000"
                        points="6.15977674 1.45791008 9.82911008 1.45791008 9.82911008 1.97983256 6.73230388 1.97983256 6.73230388 3.71328992 9.50266047 3.71328992 9.50266047 4.2352124 6.73230388 4.2352124 6.73230388 6.01232868 9.86483101 6.01232868 9.86483101 6.53425116 6.15977674 6.53425116">
                    </polygon>
                    <path
                        d="M12.8642977,5.79462946 L13.2185302,5.37391628 C13.7493829,5.85317209 14.2564217,6.09230388 14.9599256,6.09230388 C15.6416,6.09230388 16.0910884,5.72914109 16.0910884,5.22904806 L16.0910884,5.21515659 C16.0910884,4.74284651 15.8370729,4.47493953 14.7713984,4.24969922 C13.6035225,3.99667597 13.0667163,3.61962171 13.0667163,2.78514109 L13.0667163,2.77025736 C13.0667163,1.97248992 13.7702202,1.38507907 14.7356775,1.38507907 C15.4749023,1.38507907 16.0037705,1.59543566 16.5197395,2.0092031 L16.1863442,2.45174574 C15.7140341,2.06675349 15.2427163,1.90005581 14.7207938,1.90005581 C14.0609488,1.90005581 13.6402357,2.26222636 13.6402357,2.71965271 L13.6402357,2.73453643 C13.6402357,3.2128 13.9011969,3.48070698 15.0184682,3.72083101 C16.149631,3.96690853 16.6715535,4.38067597 16.6715535,5.15661395 L16.6715535,5.17149767 C16.6715535,6.04169922 15.9462202,6.60728062 14.9380961,6.60728062 C14.1323907,6.60728062 13.4725457,6.3383814 12.8642977,5.79462946"
                        id="Fill-11" fill="#000000"></path>
                    <path
                        d="M19.6695318,4.22092403 C20.5109581,4.22092403 21.0616558,3.77143566 21.0616558,3.10464496 L21.0616558,3.08976124 C21.0616558,2.36442791 20.5179039,1.98737364 19.698307,1.98737364 L18.414338,1.98737364 L18.414338,4.22092403 L19.6695318,4.22092403 Z M17.8418109,1.45751318 L19.7419659,1.45751318 C20.8880124,1.45751318 21.6421209,2.06675349 21.6421209,3.06793178 L21.6421209,3.0828155 C21.6421209,4.17726512 20.7282605,4.74284651 19.6486946,4.74284651 L18.414338,4.74284651 L18.414338,6.53484651 L17.8418109,6.53484651 L17.8418109,1.45751318 Z"
                        id="Fill-12" fill="#000000"></path>
                    <path
                        d="M27.0473922,4.01066667 L27.0473922,3.99578295 C27.0473922,2.8427907 26.2059659,1.90015504 25.0450357,1.90015504 C23.8850977,1.90015504 23.058555,2.82889922 23.058555,3.98189147 L23.058555,3.99578295 C23.058555,5.14877519 23.8999814,6.0924031 25.0599194,6.0924031 C26.2208496,6.0924031 27.0473922,5.16365891 27.0473922,4.01066667 M22.4641984,4.01066667 L22.4641984,3.99578295 C22.4641984,2.59671318 23.5149891,1.37029457 25.0599194,1.37029457 C26.6058419,1.37029457 27.6427411,2.58182946 27.6427411,3.98189147 L27.6427411,3.99578295 C27.6427411,5.39584496 26.5909581,6.62127132 25.0450357,6.62127132 C23.5010977,6.62127132 22.4641984,5.41072868 22.4641984,4.01066667"
                        id="Fill-13" fill="#000000"></path>
                    <polygon id="Fill-14" fill="#000000"
                        points="28.8564589 1.45791008 29.428986 1.45791008 29.428986 6.00538295 32.2866605 6.00538295 32.2866605 6.53425116 28.8564589 6.53425116">
                    </polygon>
                    <path
                        d="M33.1229271,4.40945116 L33.1229271,1.45751318 L33.6954543,1.45751318 L33.6954543,4.37273798 C33.6954543,5.46817984 34.2759194,6.08436589 35.2483225,6.08436589 C36.1830202,6.08436589 36.778369,5.5187845 36.778369,4.40945116 L36.778369,1.45751318 L37.3508961,1.45751318 L37.3508961,4.36579225 C37.3508961,5.84523411 36.5015318,6.61422636 35.2334388,6.61422636 C33.978245,6.61422636 33.1229271,5.84523411 33.1229271,4.40945116"
                        id="Fill-15" fill="#000000"></path>
                    <path
                        d="M40.5376992,4.22092403 C41.3791256,4.22092403 41.9298233,3.77143566 41.9298233,3.10464496 L41.9298233,3.08976124 C41.9298233,2.36442791 41.3860713,1.98737364 40.5664744,1.98737364 L39.2825054,1.98737364 L39.2825054,4.22092403 L40.5376992,4.22092403 Z M38.7099783,1.45751318 L40.6101333,1.45751318 C41.7561798,1.45751318 42.5102884,2.06675349 42.5102884,3.06793178 L42.5102884,3.0828155 C42.5102884,4.17726512 41.5964279,4.74284651 40.516862,4.74284651 L39.2825054,4.74284651 L39.2825054,6.53484651 L38.7099783,6.53484651 L38.7099783,1.45751318 Z"
                        id="Fill-16" fill="#000000"></path>
                    <path
                        d="M45.6888558,4.04698295 C46.4509023,4.04698295 46.9946543,3.65504496 46.9946543,3.00214574 L46.9946543,2.98825426 C46.9946543,2.36413023 46.5163907,1.98707597 45.6967938,1.98707597 L44.1300341,1.98707597 L44.1300341,4.04698295 L45.6888558,4.04698295 Z M43.557507,1.45820775 L45.7404527,1.45820775 C46.3635845,1.45820775 46.8646698,1.64673488 47.1831814,1.96524651 C47.4302512,2.21231628 47.5741271,2.56754109 47.5741271,2.96642481 L47.5741271,2.98031628 C47.5741271,3.82174264 46.9946543,4.31588217 46.1968868,4.46075039 L47.7557085,6.53454884 L47.0522047,6.53454884 L45.5807008,4.56195969 L44.1300341,4.56195969 L44.1300341,6.53454884 L43.557507,6.53454884 L43.557507,1.45820775 Z"
                        id="Fill-17" fill="#000000"></path>
                    <path
                        d="M51.4427039,0 L52.0162233,0.26096124 L51.1817426,0.935689922 L50.7183628,0.935689922 L51.4427039,0 Z M52.0956031,4.67745736 L50.9426109,2.08868217 L49.7816806,4.67745736 L52.0956031,4.67745736 Z M50.6806574,1.42189147 L51.2174636,1.42189147 L53.531386,6.53395349 L52.9152,6.53395349 L52.3208434,5.19243411 L49.5574326,5.19243411 L48.955138,6.53395349 L48.3677271,6.53395349 L50.6806574,1.42189147 Z"
                        id="Fill-18" fill="#000000"></path>
                    <path
                        d="M54.0135194,4.01066667 L54.0135194,3.99578295 C54.0135194,2.56 55.0871318,1.37029457 56.5804651,1.37029457 C57.5022636,1.37029457 58.0529612,1.69674419 58.5609922,2.176 L58.168062,2.59671318 C57.7413953,2.19088372 57.2621395,1.90015504 56.5735194,1.90015504 C55.4493023,1.90015504 54.6088682,2.8140155 54.6088682,3.98189147 L54.6088682,3.99578295 C54.6088682,5.17060465 55.4562481,6.0924031 56.5735194,6.0924031 C57.2690853,6.0924031 57.7265116,5.82350388 58.2117209,5.35913178 L58.5897674,5.72924031 C58.059907,6.26604651 57.4794419,6.62127132 56.5586357,6.62127132 C55.0940775,6.62127132 54.0135194,5.46827907 54.0135194,4.01066667"
                        id="Fill-19" fill="#000000"></path>
                    <polygon id="Fill-20" fill="#000000"
                        points="59.6728062 6.53454884 60.2463256 6.53454884 60.2463256 1.45820775 59.6728062 1.45820775">
                    </polygon>
                    <path
                        d="M63.5765085,5.79462946 L63.9307411,5.37391628 C64.4615938,5.85317209 64.9686326,6.09230388 65.6721364,6.09230388 C66.3538109,6.09230388 66.8032992,5.72914109 66.8032992,5.22904806 L66.8032992,5.21515659 C66.8032992,4.74284651 66.5492837,4.47493953 65.4836093,4.24969922 C64.3157333,3.99667597 63.7789271,3.61962171 63.7789271,2.78514109 L63.7789271,2.77025736 C63.7789271,1.97248992 64.482431,1.38507907 65.4478884,1.38507907 C66.1871132,1.38507907 66.7159814,1.59543566 67.2319504,2.0092031 L66.898555,2.45174574 C66.426245,2.06675349 65.9549271,1.90005581 65.4330047,1.90005581 C64.7731597,1.90005581 64.3514543,2.26222636 64.3514543,2.71965271 L64.3514543,2.73453643 C64.3514543,3.2128 64.6134078,3.48070698 65.7306791,3.72083101 C66.8618419,3.96690853 67.3837643,4.38067597 67.3837643,5.15661395 L67.3837643,5.17149767 C67.3837643,6.04169922 66.658431,6.60728062 65.650307,6.60728062 C64.8446016,6.60728062 64.1847566,6.3383814 63.5765085,5.79462946"
                        id="Fill-21" fill="#000000"></path>
                </g>
                <rect id="predel" fill="#EBEBEB" x="134" y="0" width="1" height="39"></rect>
            </g>
        </g>
    </g>
</svg>