<?xml version="1.0" encoding="UTF-8"?>
<svg width="156px" height="29px" viewBox="0 0 156 29" version="1.1" xmlns="http://www.w3.org/2000/svg" xmlns:xlink="http://www.w3.org/1999/xlink">
    <!-- Generator: Sketch 55.2 (78181) - https://sketchapp.com -->
    <title>Logo</title>
    <desc>Created with Sketch.</desc>
    <g id="Design" stroke="none" stroke-width="1" fill="none" fill-rule="evenodd">
        <g id="Zaloto-Lading-Page-Final" transform="translate(-148.000000, -135.000000)">
            <g id="Logo" transform="translate(148.000000, 135.000000)">
                <g id="napis" transform="translate(45.226147, 0.250000)" fill="#231F20">
                    <polygon id="Fill-1" points="18.72 8.175 9.39744 21.375 17.07264 21.375 16.54848 26.25 5.82645043e-13 26.25 9.36 13.05 1.872 13.05 2.39616 8.175"></polygon>
                    <path d="M28.9409952,21.824875 C29.6149152,21.824875 30.2451552,21.687375 30.8317152,21.412375 C31.4182752,21.137375 31.9299552,20.768625 32.3667552,20.306125 C32.8035552,19.843625 33.1405152,19.306125 33.3776352,18.693625 C33.6147552,18.081125 33.7333152,17.437375 33.7333152,16.762375 C33.7333152,15.612375 33.3901152,14.631125 32.7037152,13.818625 C32.0173152,13.006125 31.0625952,12.599875 29.8395552,12.599875 C29.1656352,12.599875 28.5353952,12.737375 27.9488352,13.012375 C27.3622752,13.287375 26.8505952,13.662375 26.4137952,14.137375 C25.9769952,14.612375 25.6400352,15.156125 25.4029152,15.768625 C25.1657952,16.382375 25.0472352,17.024875 25.0472352,17.699875 C25.0472352,18.824875 25.3904352,19.793625 26.0768352,20.606125 C26.7632352,21.418625 27.7179552,21.824875 28.9409952,21.824875 L28.9409952,21.824875 Z M40.3601952,8.174875 L38.4507552,26.249875 L32.7224352,26.249875 L33.0219552,23.699875 C32.4478752,24.549875 31.6304352,25.262375 30.5696352,25.837375 C29.5088352,26.412375 28.3045152,26.699875 26.9566752,26.699875 C25.8334752,26.699875 24.8038752,26.487375 23.8678752,26.062375 C22.9318752,25.637375 22.1269152,25.043625 21.4529952,24.281125 C20.7790752,23.518625 20.2549152,22.612375 19.8805152,21.562375 C19.5061152,20.512375 19.3189152,19.374875 19.3189152,18.149875 C19.3189152,16.699875 19.5747552,15.337375 20.0864352,14.062375 C20.5981152,12.787375 21.2907552,11.681125 22.1643552,10.743625 C23.0379552,9.806125 24.0550752,9.068625 25.2157152,8.531125 C26.3763552,7.993625 27.6056352,7.724875 28.9035552,7.724875 C30.3013152,7.724875 31.4619552,8.019875 32.3854752,8.606125 C33.3089952,9.193625 33.9704352,9.912375 34.3697952,10.762375 L34.6318752,8.174875 L40.3601952,8.174875 Z" id="Fill-2"></path>
                    <polygon id="Fill-4" points="46.0882656 0 51.8165856 0 49.0460256 26.25 43.3177056 26.25"></polygon>
                    <path d="M63.1982208,21.824875 C63.8721408,21.824875 64.5023808,21.687375 65.0889408,21.412375 C65.6742528,21.137375 66.1871808,20.768625 66.6239808,20.306125 C67.0607808,19.843625 67.3977408,19.306125 67.6348608,18.693625 C67.8719808,18.081125 67.9905408,17.437375 67.9905408,16.762375 C67.9905408,15.612375 67.6473408,14.631125 66.9609408,13.818625 C66.2732928,13.006125 65.3198208,12.599875 64.0967808,12.599875 C63.3979008,12.599875 62.7614208,12.737375 62.1873408,13.012375 C61.6120128,13.287375 61.1140608,13.656125 60.6897408,14.118625 C60.2641728,14.582375 59.9347008,15.124875 59.6975808,15.749875 C59.4592128,16.374875 59.3419008,17.024875 59.3419008,17.699875 C59.3419008,18.824875 59.6726208,19.793625 60.3340608,20.606125 C60.9942528,21.418625 61.9502208,21.824875 63.1982208,21.824875 M62.7115008,26.737375 C61.2388608,26.737375 59.9347008,26.512375 58.7990208,26.062375 C57.6620928,25.612375 56.7073728,24.993625 55.9348608,24.206125 C55.1611008,23.418625 54.5732928,22.499875 54.1751808,21.449875 C53.7758208,20.399875 53.5761408,19.274875 53.5761408,18.074875 C53.5761408,16.699875 53.8382208,15.381125 54.3623808,14.118625 C54.8865408,12.856125 55.6353408,11.749875 56.6087808,10.799875 C57.5822208,9.849875 58.7428608,9.093625 60.0907008,8.531125 C61.4385408,7.968625 62.9361408,7.687375 64.5835008,7.687375 C66.0561408,7.687375 67.3590528,7.912375 68.4959808,8.362375 C69.6316608,8.812375 70.5863808,9.431125 71.3601408,10.218625 C72.1339008,11.006125 72.7204608,11.924875 73.1198208,12.974875 C73.5191808,14.024875 73.7188608,15.149875 73.7188608,16.349875 C73.7188608,17.749875 73.4567808,19.074875 72.9326208,20.324875 C72.4084608,21.574875 71.6596608,22.674875 70.6862208,23.624875 C69.7127808,24.574875 68.5521408,25.331125 67.2043008,25.893625 C65.8564608,26.456125 64.3588608,26.737375 62.7115008,26.737375" id="Fill-7"></path>
                    <path d="M87.6092256,26.25 C87.1849056,26.325 86.6420256,26.39375 85.9805856,26.45625 C85.3191456,26.51875 84.5516256,26.55 83.6780256,26.55 C83.0290656,26.55 82.3364256,26.5 81.6001056,26.4 C80.8637856,26.3 80.2085856,26.04375 79.6345056,25.63125 C79.0604256,25.21875 78.6111456,24.58125 78.2866656,23.71875 C77.9621856,22.85625 77.8748256,21.675 78.0245856,20.175 L78.8482656,12.45 L76.0028256,12.45 L76.4521056,8.175 L79.2975456,8.175 L79.8591456,2.8125 L85.5500256,2.8125 L84.9884256,8.175 L89.1068256,8.175 L88.6575456,12.45 L84.5391456,12.45 L83.8652256,18.8875 C83.7903456,19.58625 83.7965856,20.135 83.8839456,20.53375 C83.9713056,20.93375 84.1210656,21.23875 84.3332256,21.45125 C84.5453856,21.66375 84.8074656,21.80125 85.1194656,21.8625 C85.4314656,21.925 85.7621856,21.95625 86.1116256,21.95625 L87.1037856,21.95625 C87.4906656,21.95625 87.8213856,21.925 88.0959456,21.8625 L87.6092256,26.25 Z" id="Fill-9"></path>
                    <path d="M99.7778496,21.824875 C100.45177,21.824875 101.08201,21.687375 101.66857,21.412375 C102.253882,21.137375 102.76681,20.768625 103.20361,20.306125 C103.64041,19.843625 103.97737,19.306125 104.21449,18.693625 C104.45161,18.081125 104.57017,17.437375 104.57017,16.762375 C104.57017,15.612375 104.22697,14.631125 103.54057,13.818625 C102.852922,13.006125 101.89945,12.599875 100.67641,12.599875 C99.9775296,12.599875 99.3410496,12.737375 98.7669696,13.012375 C98.1916416,13.287375 97.6936896,13.656125 97.2693696,14.118625 C96.8438016,14.582375 96.5143296,15.124875 96.2772096,15.749875 C96.0388416,16.374875 95.9215296,17.024875 95.9215296,17.699875 C95.9215296,18.824875 96.2522496,19.793625 96.9136896,20.606125 C97.5738816,21.418625 98.5298496,21.824875 99.7778496,21.824875 M99.2911296,26.737375 C97.8184896,26.737375 96.5143296,26.512375 95.3786496,26.062375 C94.2417216,25.612375 93.2870016,24.993625 92.5144896,24.206125 C91.7407296,23.418625 91.1529216,22.499875 90.7548096,21.449875 C90.3554496,20.399875 90.1557696,19.274875 90.1557696,18.074875 C90.1557696,16.699875 90.4178496,15.381125 90.9420096,14.118625 C91.4661696,12.856125 92.2149696,11.749875 93.1884096,10.799875 C94.1618496,9.849875 95.3224896,9.093625 96.6703296,8.531125 C98.0181696,7.968625 99.5157696,7.687375 101.16313,7.687375 C102.63577,7.687375 103.938682,7.912375 105.07561,8.362375 C106.21129,8.812375 107.16601,9.431125 107.93977,10.218625 C108.71353,11.006125 109.30009,11.924875 109.69945,12.974875 C110.09881,14.024875 110.29849,15.149875 110.29849,16.349875 C110.29849,17.749875 110.03641,19.074875 109.51225,20.324875 C108.98809,21.574875 108.23929,22.674875 107.26585,23.624875 C106.29241,24.574875 105.13177,25.331125 103.78393,25.893625 C102.43609,26.456125 100.93849,26.737375 99.2911296,26.737375" id="Fill-11"></path>
                </g>
                <g id="symbol" transform="translate(0.000090, 2.651957)">
                    <path d="M24.7991672,9.08604291 C24.8141432,9.09104291 24.8316152,9.10604291 24.8465912,9.10854291 C25.1935352,9.18729291 24.9139832,9.21979291 24.7991672,9.08604291 M33.6549752,21.6472929 C25.7002232,20.9822929 17.7454712,20.3160429 9.78947124,19.6510429 C11.4917432,18.8135429 13.2289592,18.0422929 14.9911352,17.3247929 C19.0496312,15.6735429 23.6073272,14.3760429 27.3425912,12.0497929 C29.1010232,10.9547929 30.1168952,8.77229291 29.0036792,6.83104291 C27.9665912,5.02479291 25.9023992,4.39604291 24.0516152,3.80229291 C19.2305912,2.25729291 14.3209592,1.01479291 9.35142324,0.0497929131 C6.41363124,-0.520207087 5.09324724,3.97979291 8.04975924,4.55479291 C11.2646072,5.17854291 14.4569912,5.91354291 17.6156792,6.77979291 C19.1469752,7.19979291 20.6695352,7.64854291 22.1833592,8.12604291 C22.7362232,8.30104291 23.3127992,8.46104291 23.8631672,8.65854291 C23.3826872,8.87104291 22.8797432,9.04479291 22.5727352,9.18354291 C21.6067832,9.62354291 20.6320952,10.0422929 19.6524152,10.4472929 C17.5482872,11.3197929 15.4204472,12.1310429 13.3125752,12.9897929 C9.04815924,14.7235429 4.85737524,16.6160429 1.11337524,19.3297929 C-0.763616761,20.6897929 -0.187040761,23.5085429 2.23907124,23.7110429 C12.6910712,24.5860429 23.1430712,25.4610429 33.5963192,26.3347929 C36.5990072,26.5860429 36.6439352,21.8985429 33.6549752,21.6472929" id="Fill-14" fill="#00F3B2"></path>
                    <path d="M2.69534004,13.6575429 C11.317772,15.6562929 20.033804,17.1262929 28.798508,18.0637929 C30.05774,18.1987929 31.154732,16.7900429 31.1712328,15.4437929 C31.190924,13.9112929 30.127628,12.9000429 28.864652,12.7637929 C20.513036,11.8700429 12.220076,10.4675429 4.00324404,8.56254291 C2.76772404,8.27629291 1.47354804,8.92629291 1.10164404,10.3775429 C0.770924039,11.6712929 1.45108404,13.3700429 2.69534004,13.6575429" id="Fill-16" fill="#00F3B2"></path>
                    <path d="M2.69534004,13.6575429 C11.317772,15.6562929 20.033804,17.1262929 28.798508,18.0637929 C30.05774,18.1987929 31.154732,16.7900429 31.1712328,15.4437929 C31.190924,13.9112929 30.127628,12.9000429 28.864652,12.7637929 C20.513036,11.8700429 12.220076,10.4675429 4.00324404,8.56254291 C2.76772404,8.27629291 1.47354804,8.92629291 1.10164404,10.3775429 C0.770924039,11.6712929 1.45108404,13.3700429 2.69534004,13.6575429 Z" id="Stroke-18" stroke="#FFFFFF" stroke-width="1.25"></path>
                </g>
            </g>
        </g>
    </g>
</svg>